<?xml version="1.0" standalone="no"?>
<!DOCTYPE svg PUBLIC "-//W3C//DTD SVG 20010904//EN"
 "http://www.w3.org/TR/2001/REC-SVG-20010904/DTD/svg10.dtd">
<svg version="1.0" xmlns="http://www.w3.org/2000/svg"
 width="2752.000000pt" height="1536.000000pt" viewBox="0 0 2752.000000 1536.000000"
 preserveAspectRatio="xMidYMid meet">

<g transform="translate(0.000000,1536.000000) scale(0.100000,-0.100000)"
fill="#000000" stroke="none">
<path d="M14268 12399 c-24 -14 -24 -65 0 -78 25 -14 64 13 60 41 -4 29 -38
50 -60 37z"/>
<path d="M13340 12385 c-26 -31 13 -82 44 -56 19 16 21 42 4 59 -16 16 -33 15
-48 -3z"/>
<path d="M13795 12381 c-11 -36 4 -63 32 -59 34 4 52 32 37 56 -17 26 -61 28
-69 3z"/>
<path d="M14714 12386 c-3 -8 -4 -25 -2 -38 2 -18 9 -23 32 -23 36 0 56 27 40
53 -14 22 -62 28 -70 8z"/>
<path d="M14713 11978 c-29 -14 -47 -67 -34 -101 19 -50 83 -63 119 -24 32 34
30 89 -4 116 -29 23 -48 25 -81 9z"/>
<path d="M13800 11967 c-19 -9 -26 -22 -28 -51 -4 -46 19 -76 57 -76 32 0 44
8 60 37 15 30 14 47 -6 71 -24 27 -53 34 -83 19z"/>
<path d="M14237 11962 c-10 -10 -17 -35 -17 -55 0 -57 47 -89 99 -67 51 21 61
79 23 123 -21 23 -84 23 -105 -1z"/>
<path d="M15165 11955 c-30 -30 -31 -54 -4 -89 40 -51 109 -23 109 44 0 66
-59 92 -105 45z"/>
<path d="M15653 11949 c-26 -9 -32 -56 -11 -77 19 -19 56 -14 68 8 22 42 -14
86 -57 69z"/>
<path d="M14694 11539 c-49 -24 -70 -112 -38 -158 22 -31 75 -52 114 -45 78
16 109 127 51 185 -31 31 -84 38 -127 18z"/>
<path d="M15183 11543 c-12 -2 -34 -18 -48 -34 -34 -41 -34 -97 -1 -136 21
-24 32 -28 76 -28 44 0 55 4 76 28 64 74 -5 188 -103 170z"/>
<path d="M14238 11525 c-30 -17 -53 -73 -43 -107 38 -124 215 -80 191 46 -12
65 -85 95 -148 61z"/>
<path d="M15619 11517 c-45 -34 -50 -92 -13 -136 21 -26 33 -31 69 -31 36 0
48 5 69 31 15 17 26 43 26 59 0 16 -11 42 -26 59 -21 26 -33 31 -67 31 -23 0
-49 -6 -58 -13z"/>
<path d="M16096 11485 c-26 -27 -29 -56 -9 -84 24 -31 73 -40 97 -16 20 21 21
79 0 99 -20 20 -68 21 -88 1z"/>
<path d="M14665 11077 c-81 -81 -42 -212 66 -224 56 -6 102 15 129 60 55 89
-10 197 -117 197 -38 0 -51 -6 -78 -33z"/>
<path d="M15136 11089 c-102 -80 -54 -239 73 -239 27 0 58 8 77 19 32 20 64
74 64 111 0 37 -32 91 -64 111 -43 26 -115 25 -150 -2z"/>
<path d="M15594 11077 c-30 -28 -37 -42 -41 -83 -14 -148 179 -203 239 -68 41
95 -17 184 -122 184 -32 0 -48 -7 -76 -33z"/>
<path d="M16082 11080 c-19 -12 -40 -37 -49 -58 -13 -32 -14 -42 -2 -77 35
-100 169 -114 213 -21 54 114 -56 221 -162 156z"/>
<path d="M16571 11054 c-57 -24 -65 -104 -14 -144 80 -63 177 42 113 122 -24
32 -59 39 -99 22z"/>
<path d="M12942 10729 c-51 -15 -108 -79 -120 -133 -18 -88 12 -155 88 -193
57 -30 94 -29 158 3 71 35 96 82 90 171 -3 53 -9 68 -33 94 -52 54 -120 76
-183 58z"/>
<path d="M13382 10719 c-24 -12 -55 -37 -70 -57 -23 -31 -27 -45 -27 -106 0
-81 16 -111 76 -145 107 -61 249 27 249 155 0 82 -86 174 -162 174 -13 0 -42
-10 -66 -21z"/>
<path d="M12435 10711 c-67 -41 -95 -92 -95 -169 0 -90 76 -171 159 -172 48 0
116 35 148 77 35 46 43 127 18 184 -38 84 -157 125 -230 80z"/>
<path d="M13832 10703 c-90 -44 -115 -165 -51 -247 89 -113 279 -42 279 104 0
116 -124 194 -228 143z"/>
<path d="M14325 10703 c-39 -10 -83 -53 -100 -96 -22 -57 -8 -110 39 -156 65
-63 175 -49 220 28 25 43 25 125 -1 159 -39 52 -104 79 -158 65z"/>
<path d="M11975 10680 c-46 -19 -85 -83 -85 -142 0 -112 129 -180 211 -111 33
28 68 93 69 126 1 84 -116 160 -195 127z"/>
<path d="M15125 10656 c-55 -33 -79 -78 -80 -147 0 -46 5 -62 29 -93 39 -52
82 -76 135 -76 100 0 181 90 167 188 -17 125 -147 191 -251 128z"/>
<path d="M15604 10661 c-66 -30 -104 -109 -90 -187 10 -48 82 -120 130 -129
58 -11 104 3 149 45 39 36 41 41 45 106 3 59 0 74 -20 104 -27 40 -98 80 -143
80 -16 0 -48 -9 -71 -19z"/>
<path d="M14743 10638 c-84 -87 -20 -228 97 -215 35 4 51 13 77 41 28 31 33
43 33 87 0 27 -5 59 -10 70 -16 29 -64 49 -118 49 -41 0 -52 -5 -79 -32z"/>
<path d="M16096 10660 c-63 -20 -106 -83 -106 -156 0 -117 136 -194 231 -131
48 32 82 100 76 156 -10 96 -108 160 -201 131z"/>
<path d="M16585 10653 c-79 -17 -119 -66 -119 -145 0 -60 24 -95 86 -126 58
-29 107 -22 155 22 76 69 60 196 -30 237 -42 19 -55 20 -92 12z"/>
<path d="M11470 10622 c-67 -67 -20 -182 75 -182 17 0 39 12 61 34 27 27 34
42 34 74 0 58 -32 92 -92 99 -42 5 -50 3 -78 -25z"/>
<path d="M17023 10604 c-37 -19 -66 -81 -57 -122 9 -38 50 -79 85 -86 39 -8
93 15 115 48 23 37 14 110 -18 142 -31 32 -84 39 -125 18z"/>
<path d="M11018 10596 c-11 -8 -19 -31 -22 -60 -5 -52 8 -66 61 -66 44 0 65
20 66 64 2 61 -59 97 -105 62z"/>
<path d="M12431 10321 c-24 -10 -55 -29 -69 -42 -29 -28 -68 -108 -77 -161
-15 -80 49 -204 126 -243 127 -66 284 9 323 156 20 74 13 122 -29 195 -26 43
-84 94 -109 94 -8 0 -18 5 -21 10 -10 16 -96 11 -144 -9z"/>
<path d="M12923 10317 c-42 -16 -99 -69 -123 -117 -32 -64 -35 -112 -11 -177
49 -130 102 -154 266 -119 79 16 113 45 145 118 35 82 15 164 -60 239 -66 66
-138 85 -217 56z"/>
<path d="M11950 10304 c-19 -8 -43 -17 -52 -20 -10 -4 -18 -10 -18 -14 0 -4
-9 -10 -20 -13 -12 -3 -20 -14 -20 -27 0 -13 -4 -19 -12 -14 -6 4 -8 3 -5 -3
4 -6 0 -24 -8 -40 -55 -111 -3 -238 125 -303 69 -35 182 -18 243 38 27 24 65
103 73 150 14 89 -49 206 -130 243 -48 22 -127 23 -176 3z"/>
<path d="M13382 10306 c-64 -21 -89 -42 -117 -96 -43 -86 -31 -196 30 -257
l33 -33 107 0 c131 0 145 6 198 85 61 89 20 238 -78 285 -59 28 -118 34 -173
16z"/>
<path d="M13845 10306 c-77 -26 -103 -46 -134 -101 -44 -77 -43 -135 3 -210
19 -31 43 -63 53 -70 24 -17 183 -38 218 -29 26 6 71 52 101 103 25 42 37 39
59 -11 10 -24 30 -58 43 -77 14 -18 25 -43 26 -55 1 -16 13 -25 51 -38 81 -27
277 -80 281 -75 2 2 -10 23 -27 47 -27 38 -29 44 -15 52 10 6 16 22 16 45 0
23 9 48 24 67 13 17 26 41 30 54 4 12 11 22 15 22 15 0 41 -74 49 -135 l7 -60
40 -5 40 -5 -30 -19 c-41 -27 -55 -45 -55 -76 0 -23 8 -29 78 -54 112 -42 272
-115 473 -217 170 -85 178 -88 227 -82 62 7 84 -6 76 -46 -6 -26 0 -32 93 -89
98 -61 301 -204 449 -317 121 -91 263 -215 429 -373 175 -167 197 -182 258
-163 73 21 86 23 111 17 30 -8 40 -36 28 -78 -31 -101 -31 -116 -2 -156 15
-20 76 -88 136 -150 105 -108 111 -112 151 -112 23 0 64 5 93 12 44 10 53 9
67 -5 14 -14 15 -22 4 -64 -16 -62 -16 -266 0 -336 19 -89 17 -91 -109 -83
l-107 7 -127 -138 c-142 -153 -140 -148 -112 -260 22 -89 14 -98 -86 -88 -41
4 -85 7 -98 6 -25 -1 -269 -223 -291 -264 -9 -18 -7 -38 13 -107 25 -84 25
-85 6 -104 -18 -18 -24 -19 -82 -7 -166 33 -168 32 -323 -93 -56 -45 -108 -85
-118 -91 -9 -5 -62 -41 -119 -79 -57 -38 -133 -90 -170 -114 -49 -33 -68 -52
-68 -67 0 -14 -11 -27 -32 -38 -18 -9 -41 -23 -52 -29 -15 -11 -20 -10 -29 3
-9 14 -17 12 -71 -16 -274 -142 -463 -231 -643 -301 -66 -26 -73 -32 -73 -57
0 -20 12 -40 40 -68 22 -22 40 -47 40 -56 0 -8 -15 -32 -34 -53 -19 -21 -40
-54 -47 -74 -16 -45 -31 -45 -60 -3 -12 17 -40 51 -61 73 l-40 42 37 27 c30
23 36 34 33 59 -4 39 -14 39 -170 -2 -136 -35 -138 -36 -131 -61 3 -11 -7 -32
-26 -53 -36 -42 -70 -113 -71 -147 0 -14 8 -51 17 -84 22 -80 69 -129 145
-153 105 -32 196 6 264 112 19 30 36 54 39 54 2 0 20 -24 39 -52 54 -82 93
-103 187 -103 71 0 80 2 116 31 21 17 51 55 66 85 36 67 32 119 -12 208 -33
65 -39 116 -17 146 13 17 14 17 47 -8 19 -14 52 -29 74 -32 58 -11 59 -13 22
-55 -137 -150 -12 -373 187 -336 73 14 149 113 150 197 1 53 -38 118 -91 153
-18 12 -32 25 -30 30 1 4 21 14 42 22 42 14 85 55 85 80 0 22 16 16 28 -11 7
-16 20 -25 34 -25 21 0 88 -39 88 -51 0 -3 -18 -21 -41 -39 -120 -96 -96 -275
46 -341 159 -74 337 97 270 259 -19 43 -48 77 -89 103 l-30 18 67 31 c53 25
80 32 140 33 41 1 73 6 70 10 -3 5 10 1 28 -9 45 -24 133 -24 179 0 50 26 74
51 117 118 l37 58 24 -50 c93 -197 367 -151 389 65 8 75 -15 133 -74 185 -100
88 -242 59 -308 -61 l-27 -51 -20 53 c-34 96 -35 89 9 89 47 0 63 14 63 56 l0
31 47 -23 c54 -28 153 -33 206 -10 43 18 94 73 122 132 l23 48 17 -40 c61
-148 259 -182 360 -62 16 18 34 47 42 65 15 37 17 130 4 166 -14 37 -69 96
-110 116 l-35 19 39 20 c55 27 89 61 115 113 l22 43 15 -30 c51 -98 168 -152
271 -124 85 22 172 135 172 223 0 79 -21 129 -76 184 l-53 51 39 26 c21 14 51
41 65 61 l27 35 29 -40 c25 -35 59 -62 104 -85 6 -3 4 -8 -3 -11 -30 -14 -84
-69 -103 -105 -13 -26 -19 -59 -19 -102 0 -78 36 -156 93 -201 34 -27 48 -31
115 -34 66 -3 84 0 122 20 54 29 105 100 115 160 l8 43 11 -46 c17 -65 46
-110 94 -144 59 -41 156 -47 225 -15 57 27 101 77 122 139 32 95 8 184 -71
257 l-45 42 43 30 c24 17 52 44 63 60 l19 30 51 -52 c37 -39 62 -56 99 -66
l50 -14 -33 -11 c-46 -15 -105 -67 -125 -108 -24 -52 -21 -143 7 -197 86 -172
348 -133 387 56 24 116 -28 209 -137 248 l-38 14 30 7 c80 20 142 71 171 140
l16 40 19 -37 c23 -46 72 -83 133 -104 77 -27 165 -4 227 59 93 92 91 231 -5
335 -31 34 -37 46 -26 50 8 2 38 28 67 57 l51 53 33 -34 c100 -103 294 -79
372 47 35 57 45 138 26 206 -17 62 -96 143 -155 161 -93 27 -182 5 -244 -61
l-33 -34 -32 41 c-17 23 -47 52 -67 65 l-36 23 34 31 c55 47 78 101 78 177 0
76 -23 130 -78 177 -46 41 -95 56 -171 51 -74 -5 -122 -32 -164 -95 l-28 -42
-21 44 c-26 54 -85 104 -148 126 -33 12 -41 18 -26 18 52 2 119 58 146 123 69
165 -88 342 -255 287 -81 -28 -149 -118 -149 -199 0 -98 60 -182 145 -205 28
-8 41 -14 30 -14 -11 -1 -48 -14 -81 -30 -47 -22 -68 -39 -86 -70 l-25 -41
-30 48 c-20 32 -44 55 -71 69 l-41 20 43 30 c79 56 120 187 84 270 -47 108
-113 156 -216 156 -83 1 -139 -26 -182 -85 -56 -77 -64 -181 -21 -265 19 -39
73 -93 92 -93 19 0 7 -16 -30 -39 -21 -13 -51 -43 -66 -68 l-28 -44 -30 46
c-16 25 -47 56 -68 68 l-38 23 45 39 c59 48 84 102 84 180 0 106 -59 197 -146
225 -59 20 -155 9 -202 -23 -133 -88 -133 -309 0 -396 l37 -23 -42 -22 c-25
-13 -55 -42 -74 -69 l-32 -48 -15 28 c-17 34 -61 76 -99 95 l-27 14 44 31
c120 85 127 253 16 364 -38 38 -57 49 -103 59 -98 20 -193 -21 -242 -105 -15
-25 -29 -45 -31 -45 -2 0 -13 18 -24 39 -11 22 -37 53 -57 70 -21 17 -49 40
-63 51 -23 19 -24 21 -7 31 40 24 89 74 108 110 23 47 25 128 3 175 -34 72
-118 132 -189 133 -79 2 -172 -58 -205 -132 l-18 -40 -31 62 c-25 49 -42 68
-84 95 -29 18 -61 36 -72 40 -19 8 -19 9 5 24 54 36 110 95 121 129 6 19 9 62
7 94 -5 71 -40 122 -108 157 -77 39 -156 26 -223 -37 -110 -102 -76 -260 72
-335 l44 -23 -39 -15 c-26 -10 -57 -14 -91 -11 l-51 5 -7 69 c-4 38 -11 69
-16 69 -5 0 -9 14 -9 31 0 21 4 28 13 23 10 -6 10 -4 0 7 -15 16 -17 33 -3 24
6 -3 10 -1 10 4 0 6 -4 11 -8 11 -4 0 -9 11 -10 25 -3 43 -43 114 -84 149 -21
18 -62 41 -91 50 -47 15 -57 15 -103 1 -27 -8 -72 -30 -99 -50 -28 -19 -55
-35 -61 -35 -5 0 -23 13 -39 30 -16 17 -54 38 -89 50 -71 24 -97 39 -79 46 34
14 81 54 107 92 73 104 32 247 -86 297 -126 52 -278 -48 -278 -184 0 -79 71
-173 155 -205 17 -7 15 -10 -21 -26 -29 -13 -67 -18 -125 -18 -89 0 -119 11
-140 49 -9 19 -6 27 29 63 71 73 96 153 69 217 -74 177 -295 186 -380 15 -29
-58 -47 -65 -47 -18 0 44 -62 126 -115 152 -54 26 -126 23 -178 -8 -45 -25
-106 -110 -113 -154 -8 -47 -24 -50 -24 -5 0 47 -48 136 -93 171 -31 25 -49
31 -100 34 -116 7 -206 -39 -249 -127 l-23 -48 -30 56 c-53 99 -151 141 -250
107z m752 -258 c-3 -8 -6 -5 -6 6 -1 11 2 17 5 13 3 -3 4 -12 1 -19z m515
-114 c27 -28 48 -56 48 -61 0 -15 -25 -23 -66 -23 -31 0 -36 -4 -50 -40 -29
-72 -44 -47 -44 74 0 57 5 93 17 116 l16 34 16 -25 c9 -13 37 -47 63 -75z
m822 -564 c33 -12 32 -25 -1 -92 l-27 -53 -18 40 c-20 47 -23 101 -5 108 19 8
24 8 51 -3z m988 -402 c25 -24 56 -51 69 -60 l24 -16 -36 -16 c-66 -28 -89
-28 -99 0 -9 24 -14 134 -6 134 2 0 23 -19 48 -42z m-541 -88 c11 -7 19 -21
19 -37 0 -35 -30 -143 -40 -143 -5 0 -20 20 -34 44 -14 25 -37 53 -51 64 -14
11 -25 23 -25 27 0 5 92 52 108 54 2 1 12 -4 23 -9z m1032 -445 l29 -19 -48
-18 c-26 -10 -50 -15 -54 -11 -10 11 -20 99 -13 107 4 4 18 -4 32 -18 14 -13
39 -32 54 -41z m1772 -396 c4 -11 25 -38 46 -59 l39 -38 -27 -17 c-16 -10 -39
-28 -53 -40 l-25 -23 -44 39 -43 39 35 39 c19 21 38 48 42 60 8 27 22 27 30 0z
m-865 -99 c0 -3 -21 -23 -46 -44 l-46 -39 -41 41 -41 41 26 24 c14 13 33 35
43 50 l17 27 44 -48 c24 -26 43 -49 44 -52z m-498 23 c29 -30 30 -31 10 -42
-34 -18 -51 -13 -57 17 -4 15 -8 37 -11 50 -6 32 6 49 19 26 5 -11 23 -33 39
-51z m888 59 c0 -5 16 -26 36 -46 l36 -37 -42 -37 -42 -37 -37 35 -36 35 33
39 c17 22 32 43 32 48 0 4 5 8 10 8 6 0 10 -4 10 -8z m-390 -610 c3 -2 -3 -8
-13 -14 -10 -5 -31 -27 -46 -48 l-28 -39 -31 45 c-18 24 -36 44 -42 44 -19 0
-10 18 28 57 l37 39 45 -41 c24 -22 47 -41 50 -43z m909 -43 c-20 -20 -40 -46
-44 -58 -8 -27 -22 -27 -30 0 -4 12 -23 39 -42 60 l-36 39 44 44 44 43 50 -45
51 -46 -37 -37z m-450 43 c3 -2 -7 -13 -21 -25 -14 -12 -34 -35 -43 -50 l-18
-28 -15 23 c-8 13 -27 35 -40 51 l-26 27 39 40 39 40 40 -37 c23 -21 43 -39
45 -41z m-943 14 c18 -14 18 -16 -16 -44 -39 -34 -51 -23 -30 29 14 33 19 35
46 15z m486 -460 l40 -29 -46 -46 c-47 -48 -75 -102 -77 -148 -1 -20 -4 -16
-10 17 -12 61 -58 131 -103 156 l-37 21 45 27 c26 15 58 45 73 67 l26 39 24
-38 c13 -20 42 -50 65 -66z m-929 -5 l49 -28 -35 -22 c-19 -12 -43 -33 -52
-47 -14 -21 -19 -24 -26 -13 -10 16 -12 123 -2 132 10 10 14 9 66 -22z m-428
-495 l50 -11 -47 -27 c-25 -16 -57 -45 -69 -65 l-23 -37 -13 64 c-7 36 -11 70
-8 77 5 16 42 15 110 -1z m-1035 -366 c26 -50 26 -87 1 -95 -22 -7 -108 13
-117 26 -5 9 75 109 88 109 4 0 17 -18 28 -40z"/>
<path d="M11445 10283 c-107 -56 -154 -158 -128 -284 8 -39 88 -125 127 -135
26 -6 36 -24 15 -24 -28 0 -111 -77 -134 -124 -50 -99 -24 -243 57 -316 63
-58 101 -51 279 50 95 55 109 75 109 155 0 74 -26 139 -74 183 -23 22 -53 43
-65 47 -31 9 -26 19 22 43 69 35 105 90 114 178 9 87 -37 169 -123 220 -49 29
-151 33 -199 7z"/>
<path d="M10966 10197 c-100 -57 -103 -207 -5 -279 29 -22 95 -34 133 -24 59
15 125 103 126 169 0 45 -29 97 -73 128 -51 37 -123 40 -181 6z"/>
<path d="M16055 10197 c-52 -30 -85 -87 -85 -152 0 -101 69 -176 168 -183 49
-3 63 0 97 23 73 48 106 120 91 200 -8 40 -55 99 -97 121 -43 22 -127 18 -174
-9z"/>
<path d="M16571 10210 c-158 -36 -183 -255 -37 -324 71 -34 178 -6 216 56 82
136 -28 301 -179 268z"/>
<path d="M17001 10182 c-124 -63 -106 -250 28 -291 71 -21 156 12 184 72 29
60 30 98 5 147 -43 84 -135 114 -217 72z"/>
<path d="M17496 10170 c-37 -12 -66 -38 -82 -77 -18 -42 -18 -67 3 -110 47
-99 207 -97 249 3 31 74 -10 163 -84 184 -42 11 -47 11 -86 0z"/>
<path d="M10512 10158 c-15 -8 -21 -17 -17 -29 4 -10 1 -28 -5 -40 -10 -17 -9
-23 1 -30 10 -6 11 -9 2 -9 -24 0 -13 -32 22 -66 40 -39 39 -38 68 -22 44 23
60 57 59 123 l-1 30 14 -25 c11 -19 14 -21 15 -8 0 10 -12 32 -27 48 -31 35
-92 48 -131 28z m8 -138 c0 -5 -4 -10 -10 -10 -5 0 -10 5 -10 10 0 6 5 10 10
10 6 0 10 -4 10 -10z"/>
<path d="M10035 10130 c-3 -6 -1 -10 6 -10 10 0 10 -3 1 -12 -17 -17 -15 -58
3 -58 8 0 15 -5 15 -11 0 -5 -4 -7 -10 -4 -5 3 -7 0 -4 -9 9 -23 33 -28 27 -5
-3 10 -2 26 1 35 5 14 9 14 23 3 15 -13 15 -12 2 9 -8 12 -15 18 -17 12 -2 -5
-12 -10 -22 -10 -19 0 -22 27 -3 38 7 5 7 11 -3 19 -8 8 -15 9 -19 3z"/>
<path d="M10475 10120 c-3 -5 -1 -10 4 -10 6 0 11 5 11 10 0 6 -2 10 -4 10 -3
0 -8 -4 -11 -10z"/>
<path d="M10166 10087 c3 -10 9 -15 12 -12 3 3 0 11 -7 18 -10 9 -11 8 -5 -6z"/>
<path d="M10460 10002 c0 -36 76 -77 126 -68 35 7 79 48 71 68 -4 9 -6 8 -6
-4 -1 -9 -10 -20 -21 -23 -11 -3 -20 -10 -20 -15 0 -15 -53 -18 -86 -4 -18 8
-40 24 -48 36 -9 12 -16 17 -16 10z"/>
<path d="M10017 9969 c12 -12 24 -21 27 -18 2 2 -8 13 -22 23 l-27 19 22 -24z"/>
<path d="M10140 9971 c-14 -11 -39 -21 -55 -24 l-30 -4 32 -2 c21 0 41 7 60
24 33 29 29 32 -7 6z"/>
<path d="M11025 9865 c-5 -2 -22 -6 -37 -9 -18 -4 -25 -11 -22 -20 6 -15 -3
-24 -58 -60 -20 -13 -40 -21 -44 -18 -4 4 -4 1 0 -6 4 -7 1 -15 -8 -18 -9 -3
-16 -12 -16 -20 0 -8 -3 -14 -8 -14 -7 0 -25 -37 -37 -78 -7 -23 -8 -23 -32
15 -83 124 -175 168 -271 127 -80 -33 -133 -112 -134 -198 -1 -81 28 -124 125
-183 l49 -30 -46 -13 c-57 -16 -128 -76 -155 -133 -42 -87 -19 -219 50 -288
66 -66 185 -87 266 -48 85 41 143 140 143 243 -1 90 -66 194 -138 217 -55 18
-56 20 -20 41 52 31 88 69 113 119 27 52 50 75 60 59 3 -5 1 -10 -4 -10 -6 0
-11 -5 -11 -11 0 -5 4 -8 9 -5 5 4 12 -7 16 -23 18 -83 121 -161 214 -161 139
0 251 113 251 253 0 47 -35 129 -70 166 -27 27 -95 60 -130 62 -25 1 -25 1 2
8 19 4 25 10 20 18 -8 13 -59 25 -77 18z"/>
<path d="M13098 9839 c-39 -22 -8 -81 31 -59 23 12 27 40 9 58 -14 14 -18 14
-40 1z"/>
<path d="M13300 9830 c-15 -28 4 -60 36 -60 29 0 47 35 32 63 -12 23 -55 22
-68 -3z"/>
<path d="M13520 9835 c-15 -19 -4 -52 21 -60 38 -12 65 35 37 63 -16 16 -43
15 -58 -3z"/>
<path d="M13737 9843 c-13 -12 -7 -50 9 -64 31 -26 70 25 44 56 -13 16 -42 20
-53 8z"/>
<path d="M12882 9813 c2 -20 9 -28 23 -28 14 0 21 8 23 28 3 23 0 27 -23 27
-23 0 -26 -4 -23 -27z"/>
<path d="M13954 9825 c-4 -9 0 -23 9 -32 21 -21 49 -9 45 19 -4 28 -45 38 -54
13z"/>
<path d="M11955 9811 c-66 -39 -125 -136 -124 -201 1 -74 1 -74 144 -11 72 32
160 68 198 80 37 13 67 28 67 35 0 19 -72 84 -112 101 -52 21 -136 19 -173 -4z"/>
<path d="M12490 9821 c-43 -9 -105 -38 -121 -57 -16 -19 -8 -18 110 20 83 26
99 34 80 39 -13 4 -26 6 -29 6 -3 -1 -21 -4 -40 -8z"/>
<path d="M12677 9823 c-14 -13 -6 -33 13 -33 13 0 20 7 20 20 0 19 -20 27 -33
13z"/>
<path d="M14190 9800 c0 -5 5 -10 10 -10 6 0 10 5 10 10 0 6 -4 10 -10 10 -5
0 -10 -4 -10 -10z"/>
<path d="M17490 9758 c-73 -21 -123 -79 -136 -155 -17 -107 75 -213 185 -213
71 0 134 38 167 102 17 32 19 140 3 171 -23 44 -64 78 -113 92 -56 17 -58 17
-106 3z"/>
<path d="M16994 9741 c-115 -52 -141 -205 -50 -296 151 -150 387 16 297 210
-44 96 -146 132 -247 86z"/>
<path d="M17934 9721 c-62 -28 -89 -73 -89 -148 0 -69 17 -101 75 -140 73 -50
191 -18 230 62 41 85 10 182 -70 223 -54 27 -92 28 -146 3z"/>
<path d="M9553 9686 c-63 -29 -92 -120 -59 -185 26 -49 87 -76 136 -61 24 8
24 8 3 9 -13 1 -23 6 -23 12 0 5 5 7 10 4 6 -3 10 -1 10 4 0 6 -8 11 -17 11
-15 0 -16 2 -3 9 8 6 17 8 21 5 4 -2 6 7 4 21 -1 14 2 25 8 25 6 0 5 5 -1 13
-7 8 -7 18 -2 27 5 9 5 19 -2 27 -7 9 -7 13 2 13 10 0 10 3 0 15 -8 10 -9 15
-2 15 6 0 9 7 6 15 -5 11 -2 14 12 9 13 -5 16 -4 9 4 -18 19 -78 23 -112 8z
m12 -22 c-11 -8 -19 -20 -17 -25 1 -6 -2 -7 -9 -4 -7 5 -9 -1 -7 -16 2 -15 -2
-23 -9 -21 -16 3 -17 -14 -2 -23 6 -4 9 -23 7 -44 -2 -25 1 -35 10 -33 6 1 12
-5 12 -13 0 -8 3 -14 8 -14 4 1 15 1 25 0 21 -1 23 -21 2 -21 -8 0 -15 5 -15
11 0 5 -5 7 -10 4 -6 -4 -24 8 -40 25 -23 24 -30 42 -30 72 0 57 26 101 66
111 30 7 30 7 9 -9z m62 10 c-3 -3 -12 -4 -19 -1 -8 3 -5 6 6 6 11 1 17 -2 13
-5z"/>
<path d="M9975 9680 c-10 -11 -16 -22 -14 -24 2 -2 12 7 22 20 22 29 17 32 -8
4z"/>
<path d="M10191 9675 c21 -26 37 -72 42 -115 l4 -35 1 38 c2 44 -17 96 -44
117 -18 14 -18 14 -3 -5z"/>
<path d="M9696 9645 c9 -14 20 -40 24 -58 7 -27 8 -28 9 -7 1 23 -32 90 -44
90 -3 0 2 -11 11 -25z"/>
<path d="M13080 9640 c-25 -25 -26 -62 -2 -83 39 -35 102 -9 102 41 0 28 -34
62 -60 62 -11 0 -29 -9 -40 -20z"/>
<path d="M13290 9640 c-39 -39 -14 -100 42 -100 51 0 78 69 40 103 -25 23 -58
21 -82 -3z"/>
<path d="M13515 9635 c-30 -29 -31 -49 -5 -75 24 -24 48 -25 78 -4 28 20 28
55 -1 82 -30 28 -42 28 -72 -3z"/>
<path d="M12662 9634 c-27 -18 -28 -45 -4 -67 24 -22 45 -21 66 2 15 16 16 23
5 43 -21 40 -35 45 -67 22z"/>
<path d="M12865 9630 c-37 -41 11 -104 61 -81 50 23 34 101 -21 101 -12 0 -30
-9 -40 -20z"/>
<path d="M13724 9625 c-19 -29 -11 -63 19 -74 52 -19 97 40 62 79 -25 27 -61
25 -81 -5z"/>
<path d="M13963 9639 c-54 -20 -26 -99 31 -85 26 6 44 44 31 65 -11 20 -40 29
-62 20z"/>
<path d="M12446 9624 c-32 -31 -6 -71 39 -60 31 8 35 50 6 66 -25 13 -27 13
-45 -6z"/>
<path d="M14175 9624 c-19 -20 -16 -43 8 -58 20 -13 50 2 55 26 3 16 -23 48
-38 48 -5 0 -16 -7 -25 -16z"/>
<path d="M14397 9624 c-13 -14 -7 -52 10 -58 25 -10 51 20 37 42 -12 19 -36
27 -47 16z"/>
<path d="M12244 9605 c-7 -18 3 -35 21 -35 18 0 26 15 19 34 -8 20 -33 21 -40
1z"/>
<path d="M14614 9599 c-8 -14 11 -33 25 -25 6 4 11 14 11 22 0 16 -26 19 -36
3z"/>
<path d="M9933 9565 c0 -22 2 -30 4 -17 2 12 2 30 0 40 -3 9 -5 -1 -4 -23z"/>
<path d="M9707 9511 c-10 -23 -25 -41 -33 -41 -8 0 -14 -5 -14 -10 0 -7 6 -7
20 0 22 12 53 65 48 81 -2 6 -12 -8 -21 -30z"/>
<path d="M9940 9503 c0 -5 10 -18 23 -29 l22 -19 -20 25 c-11 14 -21 27 -22
29 -2 2 -3 0 -3 -6z"/>
<path d="M10204 9480 c-23 -39 -80 -61 -141 -55 -33 3 -43 2 -33 -5 45 -29
158 7 185 59 20 40 12 40 -11 1z"/>
<path d="M13082 9453 c-15 -6 -42 -56 -42 -78 0 -9 11 -27 25 -40 44 -45 116
-24 131 37 11 50 -61 102 -114 81z"/>
<path d="M13286 9439 c-57 -45 -14 -149 57 -135 65 13 89 85 42 131 -30 30
-64 32 -99 4z"/>
<path d="M13525 9448 c-50 -27 -60 -80 -22 -116 39 -36 89 -25 115 25 28 52
-41 120 -93 91z"/>
<path d="M12645 9425 c-26 -25 -30 -41 -19 -70 10 -24 55 -44 80 -35 24 9 54
47 54 68 0 20 -47 62 -70 62 -11 0 -32 -11 -45 -25z"/>
<path d="M12851 9424 c-24 -31 -25 -33 -11 -68 22 -59 106 -55 131 5 10 26 9
34 -8 57 -29 39 -83 42 -112 6z"/>
<path d="M13720 9430 c-27 -27 -26 -71 3 -98 41 -39 100 -19 112 39 14 63 -69
105 -115 59z"/>
<path d="M13946 9429 c-30 -24 -35 -69 -10 -93 40 -40 114 -8 114 49 0 24 -42
65 -65 65 -7 0 -24 -9 -39 -21z"/>
<path d="M12431 9414 c-12 -15 -21 -30 -21 -34 0 -16 43 -60 59 -60 52 0 81
69 43 103 -27 24 -58 21 -81 -9z"/>
<path d="M14160 9420 c-11 -11 -20 -29 -20 -40 0 -25 34 -60 58 -60 25 0 62
36 62 60 0 26 -34 60 -60 60 -11 0 -29 -9 -40 -20z"/>
<path d="M12226 9414 c-9 -8 -16 -23 -16 -33 0 -20 30 -51 48 -51 17 0 52 37
52 54 0 20 -28 46 -50 46 -10 0 -26 -7 -34 -16z"/>
<path d="M14382 9418 c-7 -7 -12 -24 -12 -38 0 -32 17 -50 45 -50 25 0 55 29
55 53 0 38 -61 62 -88 35z"/>
<path d="M12014 9405 c-4 -8 -3 -26 0 -40 8 -31 39 -33 60 -3 14 20 14 24 -1
40 -20 22 -52 24 -59 3z"/>
<path d="M14602 9408 c-29 -29 -3 -72 40 -66 19 2 23 9 23 38 0 30 -4 35 -25
38 -14 2 -31 -3 -38 -10z"/>
<path d="M14823 9384 c-3 -8 -1 -20 5 -26 16 -16 42 -2 42 22 0 24 -38 28 -47
4z"/>
<path d="M11002 9311 c-89 -23 -162 -110 -164 -198 -1 -52 16 -115 35 -131 9
-7 57 22 167 99 85 61 165 114 178 119 l23 10 -22 29 c-43 58 -141 91 -217 72z"/>
<path d="M17476 9305 c-90 -32 -139 -101 -139 -194 0 -120 87 -211 202 -211
62 0 89 10 135 51 52 45 69 84 70 154 0 101 -56 179 -149 204 -51 14 -71 13
-119 -4z"/>
<path d="M17925 9301 c-135 -61 -165 -231 -61 -336 84 -83 199 -83 283 1 73
74 81 170 20 261 -56 84 -154 114 -242 74z"/>
<path d="M18420 9298 c-84 -24 -140 -99 -140 -188 0 -110 80 -190 190 -190
110 0 190 80 190 190 0 91 -56 165 -145 189 -46 13 -48 13 -95 -1z"/>
<path d="M10005 9285 c-50 -17 -112 -85 -121 -132 -17 -93 16 -165 105 -228
51 -36 97 -38 161 -5 99 51 135 134 103 241 -34 114 -134 164 -248 124z"/>
<path d="M9638 9253 c7 -3 16 -2 19 1 4 3 -2 6 -13 5 -11 0 -14 -3 -6 -6z"/>
<path d="M13293 9244 c-71 -35 -63 -139 12 -164 109 -36 175 122 69 166 -41
17 -42 17 -81 -2z"/>
<path d="M12849 9221 c-38 -38 -39 -83 -3 -116 57 -53 144 -13 144 65 0 30
-53 80 -85 80 -16 0 -38 -12 -56 -29z"/>
<path d="M13055 9225 c-52 -51 -19 -140 57 -152 32 -5 41 -1 68 25 61 62 26
152 -60 152 -30 0 -47 -6 -65 -25z"/>
<path d="M13488 9220 c-25 -26 -29 -36 -24 -62 10 -49 43 -78 88 -78 81 0 119
92 62 145 -39 36 -87 34 -126 -5z"/>
<path d="M13709 9221 c-31 -31 -36 -59 -17 -94 42 -80 158 -52 158 38 0 79
-84 112 -141 56z"/>
<path d="M9120 9233 c57 -9 72 -15 99 -41 15 -15 35 -47 44 -72 9 -25 16 -36
16 -25 1 12 -9 41 -21 65 -27 50 -75 81 -128 79 -26 -1 -28 -3 -10 -6z"/>
<path d="M9690 9237 c0 -2 15 -16 33 -33 l32 -29 -29 33 c-28 30 -36 37 -36
29z"/>
<path d="M12445 9228 c-50 -29 -58 -75 -20 -113 30 -30 64 -32 99 -4 34 27 35
71 1 104 -26 27 -49 31 -80 13z"/>
<path d="M12635 9215 c-31 -30 -32 -66 -2 -101 17 -20 33 -27 57 -27 39 0 80
40 80 77 0 68 -86 101 -135 51z"/>
<path d="M13930 9215 c-67 -72 21 -166 104 -111 20 13 26 25 26 54 0 74 -81
110 -130 57z"/>
<path d="M14155 9215 c-14 -13 -25 -36 -25 -50 0 -33 42 -75 75 -75 62 0 89
89 39 129 -35 27 -59 26 -89 -4z"/>
<path d="M9042 9203 c-15 -16 -19 -21 -7 -12 11 9 29 21 40 27 11 6 14 12 8
12 -7 0 -25 -12 -41 -27z"/>
<path d="M12219 9209 c-29 -29 -23 -79 14 -99 24 -13 30 -13 55 0 52 30 31
120 -28 120 -11 0 -29 -9 -41 -21z"/>
<path d="M14376 9206 c-29 -28 -31 -38 -15 -69 16 -29 28 -37 60 -37 32 0 59
28 59 61 0 33 -19 56 -52 64 -21 5 -33 1 -52 -19z"/>
<path d="M12010 9200 c-11 -11 -20 -26 -20 -33 0 -24 31 -57 55 -57 24 0 55
33 55 57 0 18 -37 53 -55 53 -8 0 -24 -9 -35 -20z"/>
<path d="M14602 9204 c-41 -28 -19 -94 32 -94 28 0 56 29 56 58 0 20 -33 52
-55 52 -6 0 -21 -7 -33 -16z"/>
<path d="M14828 9199 c-27 -15 -23 -57 7 -71 19 -8 28 -8 40 2 21 18 19 57 -4
70 -23 12 -22 12 -43 -1z"/>
<path d="M9460 9180 c-6 -11 -8 -20 -6 -20 3 0 10 9 16 20 6 11 8 20 6 20 -3
0 -10 -9 -16 -20z"/>
<path d="M11804 9186 c-11 -28 1 -51 25 -51 32 0 49 28 32 49 -17 20 -50 21
-57 2z"/>
<path d="M15050 9175 c-10 -11 -10 -19 -2 -27 15 -15 44 -2 40 19 -4 23 -22
27 -38 8z"/>
<path d="M8996 9138 c-18 -68 14 -146 70 -173 70 -33 158 -6 190 58 l15 32
-20 -25 c-11 -14 -21 -27 -21 -30 0 -15 -62 -40 -97 -40 -50 0 -82 18 -111 60
-20 29 -23 43 -19 88 6 55 3 67 -7 30z"/>
<path d="M9761 9124 c0 -11 3 -14 6 -6 3 7 2 16 -1 19 -3 4 -6 -2 -5 -13z"/>
<path d="M13070 9042 c-24 -11 -38 -27 -45 -49 -10 -36 -25 -44 -25 -14 0 30
-56 71 -97 71 -27 0 -43 -8 -69 -34 -51 -51 -43 -120 17 -152 l33 -16 -32 -13
c-17 -8 -36 -22 -43 -33 -12 -19 -13 -19 -42 9 -50 51 -150 33 -177 -31 -16
-38 -7 -96 19 -124 19 -21 19 -21 -5 -50 l-25 -28 -23 21 c-12 11 -28 21 -34
21 -18 0 -15 5 18 38 63 63 22 172 -65 172 -52 0 -95 -44 -95 -98 0 -42 30
-92 56 -92 8 0 14 -4 14 -10 0 -5 -5 -10 -12 -10 -16 0 -68 -51 -68 -67 0 -7
-4 -13 -10 -13 -5 0 -10 6 -10 14 0 22 -49 56 -81 56 -57 0 -109 -45 -109 -95
0 -50 52 -95 109 -95 32 0 81 34 81 56 0 8 5 14 10 14 6 0 10 -6 10 -14 0 -8
11 -24 24 -37 l24 -23 -31 -28 -30 -29 -23 22 c-17 16 -36 22 -69 22 -113 0
-153 -147 -54 -196 23 -11 28 -17 15 -17 -10 0 -33 -15 -51 -34 l-32 -35 -22
30 c-19 25 -28 29 -70 29 -43 0 -53 -4 -75 -31 -29 -35 -33 -76 -11 -118 30
-59 130 -66 163 -12 l17 27 35 -37 c36 -38 36 -38 13 -48 -12 -6 -28 -19 -35
-30 -11 -18 -13 -18 -40 11 -26 27 -33 30 -74 25 -52 -5 -79 -26 -94 -72 -16
-48 7 -98 57 -124 22 -12 31 -20 21 -21 -10 0 -32 -13 -49 -28 -25 -23 -32
-36 -33 -71 -1 -36 4 -47 32 -72 46 -41 103 -41 142 1 l27 29 13 -24 c7 -14
21 -27 32 -31 21 -6 24 -24 4 -24 -8 0 -24 -11 -35 -26 -19 -24 -20 -24 -30
-6 -25 48 -132 47 -166 -1 -22 -31 -19 -99 5 -130 39 -50 128 -47 160 5 17 29
18 29 25 8 4 -12 20 -29 36 -39 l30 -18 -26 -17 c-14 -9 -31 -28 -37 -42 l-11
-24 -19 30 c-24 41 -62 55 -110 40 -21 -6 -44 -20 -53 -33 -24 -34 -19 -91 11
-126 22 -26 33 -31 70 -31 36 0 50 5 69 26 14 15 25 32 25 38 0 6 12 -6 26
-27 17 -25 35 -40 56 -44 l31 -6 -36 -14 c-76 -31 -86 -142 -15 -179 46 -24
116 -14 144 21 20 26 21 26 27 6 2 -11 20 -29 38 -40 21 -13 27 -21 17 -21
-29 0 -58 -48 -58 -97 0 -62 40 -103 100 -103 51 0 75 12 94 48 9 16 15 21 16
11 0 -18 41 -59 59 -59 7 0 -4 -15 -23 -34 -41 -38 -48 -84 -21 -136 30 -58
137 -64 177 -9 l21 28 21 -32 c12 -18 32 -33 44 -35 30 -5 28 -18 -4 -26 -37
-10 -59 -66 -44 -112 15 -45 45 -64 98 -64 60 0 92 32 92 95 0 45 -12 64 -56
92 -18 11 -18 12 3 12 12 1 30 12 41 26 23 28 32 32 32 10 0 -8 11 -22 25 -31
l24 -16 -27 -23 c-46 -40 -32 -138 25 -164 60 -27 124 -5 148 52 l13 30 7 -32
c9 -41 44 -64 100 -63 50 1 78 16 96 48 l12 23 32 -35 c27 -28 40 -34 73 -34
48 0 96 35 107 77 l8 28 9 -33 c12 -43 61 -75 107 -68 43 7 68 30 82 76 14 45
-3 89 -39 105 -25 11 -29 25 -8 25 8 0 25 13 38 29 l24 28 32 -28 c23 -21 43
-29 68 -29 46 0 102 34 110 66 7 26 24 33 24 10 0 -24 59 -66 92 -66 41 0 98
57 98 98 0 38 -33 80 -73 90 l-32 9 43 18 c30 12 49 28 62 54 10 20 19 29 20
20 0 -9 11 -28 25 -43 34 -37 101 -37 139 0 36 37 37 104 1 139 -13 14 -31 25
-40 25 -8 0 -15 5 -15 10 0 6 7 10 16 10 8 0 29 13 45 29 24 24 29 38 29 76 0
40 -5 52 -31 76 -17 16 -26 29 -19 29 6 0 24 15 41 32 16 18 29 27 29 20 0
-17 60 -52 88 -52 64 0 119 64 108 126 -8 37 -56 84 -89 85 -18 1 -17 2 7 9
96 29 112 140 29 195 l-31 22 32 11 c38 14 56 47 56 101 0 37 -19 67 -57 91
-15 9 -15 12 -4 17 67 27 84 122 32 174 -18 17 -41 29 -58 30 l-28 1 26 7 c68
21 96 63 85 124 -10 53 -48 82 -108 82 -42 0 -53 -4 -74 -28 -13 -16 -28 -26
-33 -22 -5 3 -22 -10 -36 -29 -14 -19 -51 -54 -81 -77 -30 -23 -52 -44 -50
-47 3 -2 -5 -13 -17 -22 -15 -12 -26 -15 -34 -9 -7 7 -26 6 -54 -1 -105 -28
-146 -30 -227 -8 -42 12 -93 22 -112 22 -19 1 -35 6 -35 12 0 5 -31 41 -68 78
-38 38 -80 86 -94 107 -14 21 -29 36 -34 34 -4 -3 -7 7 -7 23 1 15 -5 46 -12
67 -17 51 -18 199 -1 248 15 44 8 87 -14 87 -19 0 -19 9 1 31 16 17 17 17 33
-3 18 -21 18 -21 40 15 12 20 49 61 82 91 54 48 58 55 45 69 -9 8 -21 17 -27
19 -7 2 2 17 20 35 67 68 19 173 -79 173 -48 0 -90 -47 -90 -100 0 -33 6 -48
31 -73 21 -21 27 -33 18 -36 -7 -2 -22 -15 -35 -28 l-22 -23 -16 25 c-9 14
-23 25 -31 25 -22 0 -19 8 13 35 22 19 27 31 27 70 0 40 -5 51 -33 76 -55 49
-147 31 -167 -33 -7 -19 -8 -19 -22 9 -39 81 -172 73 -199 -10 -6 -18 -8 -17
-19 11 -14 31 -59 62 -92 62 -10 0 -34 -8 -53 -18z m-50 -129 c0 -9 9 -27 21
-39 l20 -22 -26 -26 -26 -26 -21 20 c-12 11 -29 20 -37 20 -10 0 -4 10 17 26
17 14 32 34 32 45 0 10 5 19 10 19 6 0 10 -8 10 -17z m471 -71 c-6 -2 -18 -11
-27 -19 -13 -14 -17 -13 -37 3 -12 10 -24 20 -26 22 -3 1 5 9 17 18 12 8 22
22 22 31 0 10 11 4 31 -18 17 -19 26 -35 20 -37z m-236 33 l25 -26 -26 -23
-27 -22 -23 23 -23 23 22 24 c12 13 23 24 24 25 1 1 14 -10 28 -24z m-442
-257 c-19 -21 -23 -22 -46 -4 -17 13 -17 15 5 38 23 23 23 23 40 3 15 -18 15
-22 1 -37z m211 26 c4 -9 1 -23 -5 -30 -9 -11 -13 -11 -26 2 -12 12 -13 18 -3
29 16 19 26 19 34 -1z m218 -26 c-16 -16 -37 4 -28 28 6 16 8 16 23 1 13 -13
15 -19 5 -29z m221 0 c-22 -24 -48 -6 -31 22 9 14 15 16 29 7 17 -10 17 -13 2
-29z m-865 -190 c9 -9 8 -16 -5 -30 -15 -17 -17 -17 -35 -2 -17 16 -17 18 0
30 21 17 25 17 40 2z m207 -28 c-5 -8 -11 -8 -17 -2 -6 6 -7 16 -3 22 5 8 11
8 17 2 6 -6 7 -16 3 -22z m215 10 c0 -5 -4 -10 -9 -10 -6 0 -13 5 -16 10 -3 6
1 10 9 10 9 0 16 -4 16 -10z m220 0 c0 -5 -4 -10 -10 -10 -5 0 -10 5 -10 10 0
6 5 10 10 10 6 0 10 -4 10 -10z m220 0 c0 -5 -4 -10 -10 -10 -5 0 -10 5 -10
10 0 6 5 10 10 10 6 0 10 -4 10 -10z m-1077 -194 c15 -22 15 -25 -2 -40 -18
-16 -21 -16 -50 2 l-31 19 25 11 c14 6 25 16 25 22 0 18 17 11 33 -14z m207
-21 c0 -8 -7 -15 -15 -15 -16 0 -20 12 -8 23 11 12 23 8 23 -8z m2002 -210
c28 -12 29 -14 10 -15 -13 0 -33 -10 -45 -22 l-23 -23 -28 33 c-15 17 -24 32
-19 32 5 0 16 12 23 26 l14 26 17 -21 c10 -12 32 -28 51 -36z m-2219 12 c12
-19 13 -26 2 -41 -13 -17 -15 -17 -38 1 l-25 18 22 21 c11 12 22 22 22 23 1 1
8 -9 17 -22z m217 -28 c0 -5 -7 -9 -15 -9 -15 0 -20 12 -9 23 8 8 24 -1 24
-14z m-388 -201 c8 -3 2 -14 -19 -32 -18 -15 -33 -35 -34 -44 0 -13 -2 -13 -8
3 -11 26 -41 52 -66 58 -17 3 -15 6 13 17 18 7 37 21 43 32 11 20 11 20 35 -5
12 -14 29 -27 36 -29z m2375 3 c15 -8 13 -12 -13 -34 l-29 -26 -24 23 -23 23
22 26 c20 22 25 24 37 12 8 -8 21 -19 30 -24z m-2203 4 c5 -14 -2 -45 -10 -45
-2 0 -13 5 -24 12 -18 11 -18 14 -3 30 20 22 29 23 37 3z m1732 -22 c-10 -10
-19 5 -10 18 6 11 8 11 12 0 2 -7 1 -15 -2 -18z m234 17 c13 -8 12 -11 -5 -24
-25 -18 -52 -2 -34 20 13 16 19 17 39 4z m-1755 -10 c3 -5 1 -10 -4 -10 -6 0
-11 5 -11 10 0 6 2 10 4 10 3 0 8 -4 11 -10z m2005 -210 c7 0 -3 -15 -22 -32
l-33 -33 -23 27 -23 27 21 29 22 29 23 -23 c13 -13 29 -24 35 -24z m-2212 8
c9 -9 8 -16 -4 -29 -14 -16 -17 -16 -34 -1 -18 15 -18 16 -2 28 21 17 25 17
40 2z m1961 -2 c17 -20 -13 -43 -34 -26 -12 10 -13 16 -4 26 6 8 15 14 19 14
4 0 13 -6 19 -14z m-219 -10 c0 -3 -4 -8 -10 -11 -5 -3 -10 -1 -10 4 0 6 5 11
10 11 6 0 10 -2 10 -4z m449 -203 c9 -7 25 -13 36 -13 15 -1 12 -4 -11 -14
-17 -8 -39 -24 -48 -37 -9 -13 -16 -18 -16 -11 0 7 -11 22 -24 33 l-25 22 27
33 c23 30 28 31 36 16 5 -9 17 -22 25 -29z m-2195 -8 c18 -14 18 -16 2 -34
-17 -18 -17 -18 -40 2 -22 19 -23 22 -7 34 20 16 22 15 45 -2z m1965 2 c8 -11
6 -18 -8 -31 -16 -15 -19 -15 -31 -1 -10 12 -10 18 0 30 15 19 24 19 39 2z
m-1749 -17 c0 -5 -7 -10 -15 -10 -8 0 -15 5 -15 10 0 6 7 10 15 10 8 0 15 -4
15 -10z m1520 0 c0 -5 -4 -10 -10 -10 -5 0 -10 5 -10 10 0 6 5 10 10 10 6 0
10 -4 10 -10z m-1723 -235 c-9 -8 -18 -20 -21 -27 -3 -9 -8 -8 -16 5 -7 11
-26 25 -44 33 -25 11 -27 13 -10 14 12 0 32 8 45 19 23 18 23 18 42 -5 16 -21
17 -26 4 -39z m1972 15 c0 -3 -10 -13 -23 -22 -23 -16 -25 -16 -41 2 -17 19
-17 21 0 40 16 18 18 18 41 2 13 -9 23 -19 23 -22z m-1773 9 c10 -17 -13 -36
-27 -22 -12 12 -4 33 11 33 5 0 12 -5 16 -11z m1530 0 c10 -17 -13 -36 -27
-22 -12 12 -4 33 11 33 5 0 12 -5 16 -11z m-1306 -9 c0 -5 -4 -10 -9 -10 -6 0
-13 5 -16 10 -3 6 1 10 9 10 9 0 16 -4 16 -10z m1080 0 c0 -5 -5 -10 -11 -10
-5 0 -7 5 -4 10 3 6 8 10 11 10 2 0 4 -4 4 -10z m490 -203 c34 -15 34 -15 8
-16 -28 -1 -68 -42 -68 -70 0 -9 -8 0 -18 19 -9 19 -27 40 -39 46 l-23 11 25
11 c13 6 30 20 37 32 13 20 13 20 28 1 8 -11 31 -26 50 -34z m-1785 6 c10 -14
10 -21 -4 -39 l-16 -21 -26 21 -26 21 26 17 c33 21 32 21 46 1z m1527 0 c18
-16 18 -17 -3 -39 l-22 -23 -17 22 c-17 20 -17 24 -3 40 20 21 22 21 45 0z
m-1319 -24 c-17 -17 -37 -1 -22 17 8 10 15 12 23 4 7 -7 7 -13 -1 -21z m217 6
c0 -8 -4 -15 -9 -15 -13 0 -22 16 -14 24 11 11 23 6 23 -9z m435 5 c3 -5 -1
-10 -10 -10 -9 0 -13 5 -10 10 3 6 8 10 10 10 2 0 7 -4 10 -10z m216 -13 c-13
-13 -26 -3 -16 12 3 6 11 8 17 5 6 -4 6 -10 -1 -17z m232 16 c4 -3 2 -12 -4
-20 -9 -10 -15 -10 -25 -2 -8 6 -11 15 -8 20 6 11 28 12 37 2z m-663 -13 c0
-5 -4 -10 -10 -10 -5 0 -10 5 -10 10 0 6 5 10 10 10 6 0 10 -4 10 -10z m873
-163 c3 -8 22 -22 42 -31 l37 -18 -34 -16 c-18 -10 -38 -28 -44 -41 l-12 -24
-16 31 c-9 17 -23 35 -32 40 -14 8 -12 13 13 39 32 35 39 38 46 20z m-1294
-68 c-10 -10 -19 -25 -19 -31 0 -7 -6 -4 -12 7 -6 11 -20 28 -32 37 -17 14
-18 18 -5 18 9 0 22 7 29 15 12 14 16 13 36 -6 22 -20 22 -21 3 -40z m1087 37
c19 -14 19 -15 -5 -40 l-24 -25 -20 25 c-19 24 -19 25 -1 39 24 18 26 18 50 1z
m-878 -8 c9 -9 8 -16 -5 -30 -15 -17 -17 -17 -35 -2 -17 16 -17 18 0 30 21 17
25 17 40 2z m222 -8 c0 -14 -17 -21 -34 -14 -12 5 -14 10 -6 20 12 13 40 9 40
-6z m220 0 c0 -4 -7 -10 -15 -13 -16 -7 -29 8 -20 23 6 10 35 2 35 -10z m215
10 c4 -6 1 -18 -6 -26 -11 -13 -14 -13 -27 0 -8 8 -11 19 -8 25 9 14 33 14 41
1z m31 -220 c11 0 6 -9 -15 -29 -17 -16 -31 -34 -31 -41 0 -6 -15 3 -32 22
l-33 33 30 27 c29 26 30 26 48 7 10 -10 25 -19 33 -19z m-447 -7 c2 -1 -7 -15
-21 -31 l-24 -29 -25 28 -26 28 26 19 c24 18 27 19 46 4 11 -9 22 -18 24 -19z
m203 16 l24 -22 -25 -26 -26 -26 -23 28 -24 27 24 20 c12 11 24 19 25 20 1 0
12 -10 25 -21z"/>
<path d="M12444 9030 c-31 -12 -54 -49 -54 -86 0 -24 8 -39 31 -58 39 -33 82
-34 114 -1 64 63 -9 179 -91 145z"/>
<path d="M12633 9022 c-72 -56 -37 -162 53 -162 91 0 131 91 68 154 -32 31
-87 35 -121 8z"/>
<path d="M13921 9016 c-12 -13 -24 -39 -28 -59 -5 -31 -1 -40 25 -67 34 -33
56 -37 107 -16 62 26 71 91 20 142 -33 33 -93 33 -124 0z"/>
<path d="M9450 9023 c0 -16 59 -83 73 -83 6 0 1 7 -12 16 -12 9 -31 30 -42 48
-10 17 -19 26 -19 19z"/>
<path d="M12229 9015 c-53 -29 -57 -94 -7 -129 32 -23 65 -20 93 9 31 30 32
66 3 99 -30 32 -57 38 -89 21z"/>
<path d="M14145 9005 c-28 -27 -34 -79 -12 -108 7 -11 32 -20 62 -23 43 -5 53
-3 70 15 69 77 -47 190 -120 116z"/>
<path d="M14385 9018 c-51 -29 -60 -84 -20 -123 40 -41 96 -30 124 23 17 32
-2 78 -40 97 -33 18 -38 18 -64 3z"/>
<path d="M12006 8999 c-32 -25 -35 -70 -6 -99 41 -41 110 -10 110 49 0 30 -38
71 -65 71 -7 0 -24 -9 -39 -21z"/>
<path d="M9720 8978 c-15 -21 -17 -28 -6 -19 16 13 41 51 33 51 -2 0 -14 -15
-27 -32z"/>
<path d="M14587 8992 c-22 -25 -21 -75 1 -95 41 -37 112 -6 112 48 0 55 -77
87 -113 47z"/>
<path d="M11798 8989 c-24 -14 -23 -61 2 -84 36 -33 90 3 81 55 -6 34 -49 49
-83 29z"/>
<path d="M14803 8974 c-15 -24 -15 -29 -2 -53 19 -34 61 -39 88 -12 26 26 26
46 1 71 -28 28 -66 26 -87 -6z"/>
<path d="M15048 8979 c-25 -14 -23 -56 3 -70 18 -9 25 -7 42 9 19 20 19 22 3
46 -18 29 -23 30 -48 15z"/>
<path d="M11592 8968 c-18 -18 -15 -36 9 -48 31 -17 51 -5 47 27 -3 31 -34 43
-56 21z"/>
<path d="M15260 8951 c0 -27 19 -36 37 -18 18 18 9 37 -18 37 -12 0 -19 -7
-19 -19z"/>
<path d="M9660 8940 c0 -5 7 -7 15 -4 8 4 15 8 15 10 0 2 -7 4 -15 4 -8 0 -15
-4 -15 -10z"/>
<path d="M9573 8923 c9 -2 25 -2 35 0 9 3 1 5 -18 5 -19 0 -27 -2 -17 -5z"/>
<path d="M10002 8859 c-49 -10 -121 -78 -152 -144 -46 -96 -2 -240 91 -298
118 -73 280 -30 349 93 33 60 34 156 3 215 -59 111 -166 160 -291 134z"/>
<path d="M9530 8809 c-143 -57 -175 -253 -56 -344 61 -46 174 -73 191 -45 4 6
10 8 14 6 4 -3 20 6 37 20 16 14 23 23 17 19 -20 -10 -15 4 12 33 37 39 50 96
36 152 -7 25 -14 56 -16 69 -5 30 -38 66 -80 85 -37 18 -117 20 -155 5z"/>
<path d="M10485 8804 c-76 -28 -124 -99 -125 -186 0 -86 4 -86 109 10 53 48
119 106 146 130 28 24 40 38 28 33 -30 -15 -38 -14 -22 5 11 13 9 14 -14 9
-17 -5 -27 -3 -27 4 0 6 -7 11 -15 11 -8 0 -15 -4 -15 -10 0 -5 -5 -10 -11
-10 -5 0 -7 5 -4 10 8 13 -1 12 -50 -6z m40 -22 c-3 -3 -11 0 -18 7 -9 10 -8
11 6 5 10 -3 15 -9 12 -12z m-35 -2 c0 -5 -5 -10 -12 -10 -6 0 -20 -7 -30 -17
-17 -15 -18 -15 -18 2 0 10 3 16 6 12 4 -3 13 0 21 8 17 17 33 19 33 5z m100
6 c0 -3 -4 -8 -10 -11 -5 -3 -10 -1 -10 4 0 6 5 11 10 11 6 0 10 -2 10 -4z"/>
<path d="M12240 8813 c-75 -28 -86 -124 -18 -159 84 -43 168 60 106 130 -24
26 -62 39 -88 29z"/>
<path d="M14385 8811 c-5 -9 85 -101 106 -109 5 -2 9 13 9 33 0 46 -36 85 -79
85 -16 0 -32 -4 -36 -9z"/>
<path d="M12015 8798 c-61 -33 -60 -103 2 -137 76 -40 145 69 79 126 -30 25
-50 28 -81 11z"/>
<path d="M14576 8779 c-30 -35 -32 -49 -11 -89 35 -68 145 -41 145 37 0 77
-86 110 -134 52z"/>
<path d="M11798 8788 c-62 -50 -16 -146 56 -118 49 18 59 68 21 105 -27 28
-53 32 -77 13z"/>
<path d="M14809 8782 c-50 -41 -11 -132 50 -117 31 7 61 40 61 67 0 25 -43 68
-68 68 -11 0 -30 -8 -43 -18z"/>
<path d="M9123 8783 c9 -2 23 -2 30 0 6 3 -1 5 -18 5 -16 0 -22 -2 -12 -5z"/>
<path d="M15041 8773 c-23 -16 -28 -62 -9 -81 22 -22 67 -14 80 13 23 51 -27
99 -71 68z"/>
<path d="M11588 8769 c-34 -19 -12 -89 28 -89 18 0 54 36 54 53 0 18 -32 47
-51 47 -8 0 -22 -5 -31 -11z"/>
<path d="M8607 8763 c-3 -5 22 -8 54 -9 33 0 54 3 47 8 -16 10 -95 10 -101 1z"/>
<path d="M9225 8748 c15 -12 36 -35 46 -52 10 -17 19 -26 19 -21 0 23 -63 94
-84 95 -5 0 4 -10 19 -22z"/>
<path d="M15250 8751 c-13 -25 -4 -48 22 -57 29 -9 52 18 44 50 -8 32 -50 36
-66 7z"/>
<path d="M11382 8747 c-9 -10 -9 -18 1 -31 17 -23 49 -11 45 18 -4 25 -30 32
-46 13z"/>
<path d="M8730 8747 c0 -4 13 -21 30 -38 73 -77 39 -193 -67 -226 -21 -6 -30
-12 -20 -12 30 -2 83 25 105 54 46 58 38 146 -18 200 -16 16 -30 26 -30 22z"/>
<path d="M15482 8728 c6 -18 28 -21 28 -4 0 9 -7 16 -16 16 -9 0 -14 -5 -12
-12z"/>
<path d="M8539 8713 c-13 -16 -12 -17 4 -4 9 7 17 15 17 17 0 8 -8 3 -21 -13z"/>
<path d="M8993 8718 c-15 -20 -25 -38 -20 -38 3 0 12 11 21 25 17 26 16 35 -1
13z"/>
<path d="M8516 8675 c-3 -9 -6 -24 -5 -33 0 -9 5 -4 10 12 9 32 6 48 -5 21z"/>
<path d="M8963 8620 c0 -25 2 -35 4 -22 2 12 2 32 0 45 -2 12 -4 2 -4 -23z"/>
<path d="M9293 8610 c0 -30 2 -43 4 -27 2 15 2 39 0 55 -2 15 -4 2 -4 -28z"/>
<path d="M11989 8571 c-17 -18 -29 -40 -29 -56 0 -38 50 -85 90 -85 44 0 80
39 80 85 0 79 -84 112 -141 56z"/>
<path d="M14583 8585 c-21 -15 -21 -15 -4 -82 17 -67 18 -68 52 -71 52 -4 89
28 89 77 0 72 -79 116 -137 76z"/>
<path d="M11785 8565 c-14 -13 -25 -36 -25 -50 0 -28 40 -75 64 -75 30 0 65
23 76 50 9 22 8 34 -4 58 -25 49 -72 56 -111 17z"/>
<path d="M14802 8570 c-31 -29 -31 -93 0 -114 33 -23 75 -20 103 9 32 31 32
65 0 99 -29 32 -72 34 -103 6z"/>
<path d="M8510 8577 c0 -43 73 -108 120 -106 22 0 20 2 -10 12 -51 17 -65 28
-89 67 -11 19 -21 31 -21 27z"/>
<path d="M15050 8573 c-23 -8 -40 -34 -40 -60 0 -28 33 -63 60 -63 26 0 60 34
60 60 0 21 -42 71 -57 69 -4 0 -15 -3 -23 -6z"/>
<path d="M8976 8550 c13 -52 95 -110 154 -109 16 0 9 5 -22 13 -62 17 -94 39
-118 84 -14 25 -19 29 -14 12z"/>
<path d="M11577 8552 c-33 -37 -8 -92 41 -92 25 0 62 33 62 55 0 23 -37 55
-63 55 -13 0 -31 -8 -40 -18z"/>
<path d="M15246 8538 c-13 -19 -14 -25 -2 -43 26 -40 86 -27 86 19 0 47 -57
63 -84 24z"/>
<path d="M9270 8538 c0 -7 -12 -26 -27 -42 l-28 -31 28 25 c34 29 53 60 37 60
-5 0 -10 -5 -10 -12z"/>
<path d="M11369 8534 c-17 -21 0 -49 31 -49 31 0 48 28 31 49 -8 9 -21 16 -31
16 -10 0 -23 -7 -31 -16z"/>
<path d="M15480 8535 c-16 -20 -5 -45 20 -45 14 0 20 7 20 24 0 28 -24 41 -40
21z"/>
<path d="M9185 8460 c-3 -6 1 -7 9 -4 18 7 21 14 7 14 -6 0 -13 -4 -16 -10z"/>
<path d="M12013 8385 c-17 -7 -39 -28 -48 -45 -49 -94 81 -180 149 -99 44 51
26 127 -35 148 -18 6 -32 11 -33 11 -1 -1 -15 -7 -33 -15z"/>
<path d="M14610 8394 c-10 -3 -21 -31 -32 -82 -19 -93 -12 -107 54 -106 34 1
47 8 70 33 36 41 37 81 1 120 -28 30 -64 43 -93 35z"/>
<path d="M9522 8377 c-77 -24 -172 -147 -172 -222 0 -52 27 -128 61 -168 61
-74 176 -106 261 -73 89 34 168 143 167 231 -1 161 -164 281 -317 232z"/>
<path d="M11776 8350 c-29 -35 -32 -51 -14 -83 28 -53 89 -63 128 -23 45 49
14 128 -52 134 -29 3 -40 -2 -62 -28z"/>
<path d="M14796 8359 c-53 -42 -20 -139 48 -139 78 0 115 82 61 135 -30 31
-73 32 -109 4z"/>
<path d="M15020 8350 c-41 -41 -12 -120 45 -120 39 0 79 44 71 78 -14 57 -78
80 -116 42z"/>
<path d="M11571 8333 c-34 -43 -7 -93 50 -93 35 0 59 24 59 59 0 60 -72 82
-109 34z"/>
<path d="M11367 8332 c-32 -35 -10 -82 38 -82 40 0 59 55 29 84 -21 21 -47 20
-67 -2z"/>
<path d="M15240 8331 c-17 -32 -12 -60 15 -77 30 -20 58 -11 74 22 9 22 9 31
-4 50 -20 30 -69 33 -85 5z"/>
<path d="M9039 8312 c-43 -22 -59 -38 -81 -81 -18 -34 -28 -69 -28 -95 0 -58
42 -140 86 -167 42 -26 102 -41 110 -27 3 5 11 4 20 -3 11 -9 14 -8 14 3 0 9
9 14 23 13 28 -3 48 5 42 15 -3 5 3 15 13 22 40 28 72 89 72 138 0 90 -37 152
-112 191 -51 26 -97 24 -159 -9z"/>
<path d="M15476 8324 c-27 -27 -12 -64 26 -64 15 0 38 27 38 44 0 8 -31 36
-40 36 -5 0 -16 -7 -24 -16z"/>
<path d="M10125 8304 c-9 -15 -12 -23 -6 -20 11 7 35 46 28 46 -3 0 -12 -12
-22 -26z"/>
<path d="M8690 8306 c0 -2 7 -7 16 -10 8 -3 12 -2 9 4 -6 10 -25 14 -25 6z"/>
<path d="M11177 8304 c-9 -10 2 -24 19 -24 8 0 14 7 14 15 0 15 -21 21 -33 9z"/>
<path d="M8750 8280 c14 -12 33 -31 43 -43 l18 -22 -10 22 c-6 12 -26 31 -43
43 l-33 22 25 -22z"/>
<path d="M8270 8277 c0 -2 15 -16 33 -33 l32 -29 -29 33 c-28 30 -36 37 -36
29z"/>
<path d="M8529 8263 c-13 -16 -12 -17 4 -4 9 7 17 15 17 17 0 8 -8 3 -21 -13z"/>
<path d="M10052 8233 l-38 -38 36 30 c19 16 39 33 45 37 5 5 6 8 2 8 -4 0 -25
-17 -45 -37z"/>
<path d="M8505 8229 c-4 -6 -5 -12 -2 -15 2 -3 7 2 10 11 7 17 1 20 -8 4z"/>
<path d="M9891 8184 c0 -11 3 -14 6 -6 3 7 2 16 -1 19 -3 4 -6 -2 -5 -13z"/>
<path d="M8032 8160 c0 -14 2 -19 5 -12 2 6 2 18 0 25 -3 6 -5 1 -5 -13z"/>
<path d="M8821 8164 c0 -11 3 -14 6 -6 3 7 2 16 -1 19 -3 4 -6 -2 -5 -13z"/>
<path d="M8342 8145 c0 -16 2 -22 5 -12 2 9 2 23 0 30 -3 6 -5 -1 -5 -18z"/>
<path d="M8482 8140 c0 -19 2 -27 5 -17 2 9 2 25 0 35 -3 9 -5 1 -5 -18z"/>
<path d="M9971 8149 c-13 -11 -30 -18 -37 -15 -8 3 -11 0 -7 -10 3 -7 1 -14
-5 -14 -6 0 -15 12 -20 28 l-10 27 -1 -30 c0 -67 11 -69 64 -15 51 52 58 64
16 29z"/>
<path d="M11775 8147 c-21 -17 -27 -32 -27 -61 0 -82 97 -122 148 -62 73 84
-37 196 -121 123z"/>
<path d="M14790 8150 c-46 -46 -36 -113 22 -145 35 -19 38 -19 73 -2 58 28 71
86 29 136 -21 25 -33 31 -65 31 -25 0 -46 -7 -59 -20z"/>
<path d="M11600 8150 c-56 -14 -65 -93 -14 -127 49 -32 115 20 100 80 -8 32
-51 56 -86 47z"/>
<path d="M15015 8135 c-30 -30 -32 -64 -4 -99 42 -53 129 -21 129 48 0 68 -77
100 -125 51z"/>
<path d="M11366 8124 c-19 -18 -21 -65 -4 -82 20 -20 65 -14 82 10 21 30 20
44 -4 68 -24 24 -53 26 -74 4z"/>
<path d="M15248 8128 c-30 -24 -31 -56 -3 -83 27 -28 59 -27 83 3 41 53 -27
121 -80 80z"/>
<path d="M8821 8114 c0 -11 3 -14 6 -6 3 7 2 16 -1 19 -3 4 -6 -2 -5 -13z"/>
<path d="M15466 8111 c-23 -25 -13 -59 20 -67 30 -8 54 11 54 40 0 45 -44 61
-74 27z"/>
<path d="M11163 8094 c-3 -8 2 -23 11 -32 15 -15 17 -15 32 0 21 21 11 48 -16
48 -11 0 -23 -7 -27 -16z"/>
<path d="M15700 8085 c0 -10 7 -15 18 -13 21 4 19 22 -2 26 -10 2 -16 -3 -16
-13z"/>
<path d="M8490 8087 c0 -15 29 -63 46 -78 15 -11 14 -9 -2 16 -12 17 -26 39
-32 50 -6 11 -12 16 -12 12z"/>
<path d="M8789 8033 c-13 -16 -12 -17 4 -4 16 13 21 21 13 21 -2 0 -10 -8 -17
-17z"/>
<path d="M8080 8026 c0 -2 8 -10 18 -17 15 -13 16 -12 3 4 -13 16 -21 21 -21
13z"/>
<path d="M8256 8003 c-4 -5 -33 -11 -64 -14 l-57 -6 51 -2 c31 0 58 5 70 14
10 8 16 15 13 15 -3 0 -9 -3 -13 -7z"/>
<path d="M8743 7996 c-13 -6 -23 -14 -23 -19 0 -9 36 9 45 23 3 6 5 9 3 9 -2
-1 -13 -6 -25 -13z"/>
<path d="M8567 7989 c7 -7 15 -10 18 -7 3 3 -2 9 -12 12 -14 6 -15 5 -6 -5z"/>
<path d="M8643 7963 c9 -2 23 -2 30 0 6 3 -1 5 -18 5 -16 0 -22 -2 -12 -5z"/>
<path d="M11793 7950 c-30 -12 -56 -66 -48 -99 11 -46 44 -71 91 -71 53 0 84
33 84 89 -1 69 -61 108 -127 81z"/>
<path d="M14805 7948 c-32 -19 -44 -41 -45 -81 0 -49 43 -97 88 -97 35 0 80
33 93 68 29 75 -65 151 -136 110z"/>
<path d="M15019 7921 c-36 -36 -37 -73 -4 -106 32 -33 74 -33 105 0 32 34 30
83 -5 113 -35 30 -61 28 -96 -7z"/>
<path d="M11570 7920 c-33 -33 -30 -75 6 -107 31 -28 54 -29 88 -2 18 15 26
30 26 53 0 64 -76 100 -120 56z"/>
<path d="M11365 7905 c-29 -28 -31 -42 -10 -72 21 -30 51 -34 80 -11 30 24 32
61 5 88 -26 26 -46 25 -75 -5z"/>
<path d="M15244 7905 c-31 -31 -28 -61 7 -88 24 -17 30 -18 55 -6 40 19 47 79
12 103 -31 22 -45 20 -74 -9z"/>
<path d="M15469 7899 c-10 -10 -19 -24 -19 -30 0 -50 71 -69 91 -25 23 49 -34
93 -72 55z"/>
<path d="M9057 7900 c-44 -13 -113 -76 -136 -123 -60 -124 13 -302 139 -337
151 -42 313 91 297 245 -16 154 -160 257 -300 215z"/>
<path d="M11161 7881 c-13 -24 9 -57 33 -48 23 9 31 34 16 52 -17 20 -37 19
-49 -4z"/>
<path d="M15694 7875 c-4 -9 -2 -21 4 -27 15 -15 44 -1 40 19 -4 23 -36 29
-44 8z"/>
<path d="M8678 7853 c7 -3 16 -2 19 1 4 3 -2 6 -13 5 -11 0 -14 -3 -6 -6z"/>
<path d="M9660 7850 c13 -8 13 -13 2 -32 -12 -22 -12 -22 8 1 16 19 18 26 8
32 -7 5 -17 9 -23 9 -5 0 -3 -5 5 -10z"/>
<path d="M8218 7843 c7 -3 16 -2 19 1 4 3 -2 6 -13 5 -11 0 -14 -3 -6 -6z"/>
<path d="M7708 7833 c12 -2 30 -2 40 0 9 3 -1 5 -23 4 -22 0 -30 -2 -17 -4z"/>
<path d="M8260 7836 c0 -3 9 -10 20 -16 11 -6 20 -8 20 -6 0 3 -9 10 -20 16
-11 6 -20 8 -20 6z"/>
<path d="M8059 7803 c-13 -17 -13 -17 6 -3 11 8 22 16 24 17 2 2 0 3 -6 3 -6
0 -17 -8 -24 -17z"/>
<path d="M8519 7803 c-13 -16 -12 -17 4 -4 9 7 17 15 17 17 0 8 -8 3 -21 -13z"/>
<path d="M7835 7790 c10 -11 20 -20 23 -20 3 0 -3 9 -13 20 -10 11 -20 20 -23
20 -3 0 3 -9 13 -20z"/>
<path d="M9424 7785 c-9 -14 -15 -27 -13 -30 3 -2 12 10 21 26 21 36 15 39 -8
4z"/>
<path d="M7599 7783 c-13 -16 -12 -17 4 -4 9 7 17 15 17 17 0 8 -8 3 -21 -13z"/>
<path d="M14814 7740 c-32 -13 -54 -50 -54 -90 1 -81 86 -117 149 -64 77 65
-2 194 -95 154z"/>
<path d="M9401 7724 c0 -11 3 -14 6 -6 3 7 2 16 -1 19 -3 4 -6 -2 -5 -13z"/>
<path d="M11765 7708 c-64 -76 18 -178 108 -137 51 23 63 104 22 144 -37 38
-95 35 -130 -7z"/>
<path d="M15012 7707 c-40 -42 -21 -118 32 -131 54 -14 114 39 102 89 -16 64
-92 87 -134 42z"/>
<path d="M7561 7704 c0 -11 3 -14 6 -6 3 7 2 16 -1 19 -3 4 -6 -2 -5 -13z"/>
<path d="M8473 7670 c0 -30 2 -43 4 -27 2 15 2 39 0 55 -2 15 -4 2 -4 -28z"/>
<path d="M11565 7700 c-26 -29 -24 -79 4 -102 70 -56 157 26 105 100 -20 29
-83 31 -109 2z"/>
<path d="M11361 7684 c-12 -15 -21 -33 -21 -40 0 -19 40 -54 62 -54 24 0 58
35 58 60 0 25 -34 60 -59 60 -11 0 -29 -12 -40 -26z"/>
<path d="M15236 7688 c-9 -12 -16 -29 -16 -38 0 -29 30 -60 59 -60 52 0 82 68
45 104 -23 24 -70 20 -88 -6z"/>
<path d="M15467 7682 c-22 -24 -21 -45 1 -65 26 -24 49 -21 68 8 15 23 15 27
0 50 -19 30 -46 32 -69 7z"/>
<path d="M8361 7664 c0 -11 3 -14 6 -6 3 7 2 16 -1 19 -3 4 -6 -2 -5 -13z"/>
<path d="M11156 7665 c-8 -22 -8 -21 10 -39 21 -22 56 -3 52 27 -4 28 -52 37
-62 12z"/>
<path d="M15694 7666 c-9 -24 4 -48 23 -44 12 2 18 12 18 28 0 29 -32 41 -41
16z"/>
<path d="M7881 7654 c0 -11 3 -14 6 -6 3 7 2 16 -1 19 -3 4 -6 -2 -5 -13z"/>
<path d="M9401 7654 c0 -11 3 -14 6 -6 3 7 2 16 -1 19 -3 4 -6 -2 -5 -13z"/>
<path d="M9410 7585 c0 -18 34 -66 59 -84 34 -24 49 -28 27 -6 -8 8 -18 15
-23 15 -11 0 -49 59 -45 71 1 5 -2 9 -8 9 -5 0 -10 -2 -10 -5z"/>
<path d="M8498 7565 c6 -11 21 -29 34 -40 22 -19 22 -19 -2 10 -40 48 -43 51
-32 30z"/>
<path d="M8055 7540 c10 -11 20 -20 23 -20 3 0 -3 9 -13 20 -10 11 -20 20 -23
20 -3 0 3 -9 13 -20z"/>
<path d="M9665 7538 c10 -17 13 -28 6 -28 -6 0 -11 -7 -11 -16 0 -14 3 -14 15
-4 21 17 19 34 -7 56 l-21 19 18 -27z"/>
<path d="M7610 7546 c0 -2 8 -10 18 -17 15 -13 16 -12 3 4 -13 16 -21 21 -21
13z"/>
<path d="M11789 7515 c-76 -42 -53 -158 33 -172 32 -5 41 -1 68 25 75 75 -10
199 -101 147z"/>
<path d="M14814 7520 c-55 -23 -71 -99 -30 -147 53 -61 156 -21 156 62 0 63
-69 110 -126 85z"/>
<path d="M7678 7503 c6 -2 18 -2 25 0 6 3 1 5 -13 5 -14 0 -19 -2 -12 -5z"/>
<path d="M7733 7503 c9 -2 23 -2 30 0 6 3 -1 5 -18 5 -16 0 -22 -2 -12 -5z"/>
<path d="M8100 7506 c0 -2 7 -7 16 -10 8 -3 12 -2 9 4 -6 10 -25 14 -25 6z"/>
<path d="M8248 7503 c7 -3 16 -2 19 1 4 3 -2 6 -13 5 -11 0 -14 -3 -6 -6z"/>
<path d="M11576 7489 c-49 -38 -20 -129 41 -129 36 0 73 38 73 75 0 36 -36 75
-70 75 -10 0 -29 -9 -44 -21z"/>
<path d="M15012 7487 c-55 -58 6 -151 81 -124 55 19 66 111 17 137 -32 17 -75
11 -98 -13z"/>
<path d="M15244 7475 c-31 -31 -29 -61 9 -89 26 -19 30 -19 55 -5 48 26 39 98
-15 114 -17 4 -30 -1 -49 -20z"/>
<path d="M11354 7465 c-19 -30 -11 -60 22 -82 24 -15 27 -15 52 4 15 11 28 30
30 42 8 55 -73 83 -104 36z"/>
<path d="M15462 7468 c-33 -33 7 -95 52 -79 16 7 21 17 21 47 0 36 -2 39 -30
42 -17 2 -36 -3 -43 -10z"/>
<path d="M11172 7461 c-8 -4 -12 -19 -10 -32 2 -18 9 -24 28 -24 28 0 39 27
20 50 -14 17 -20 18 -38 6z"/>
<path d="M15694 7445 c-4 -9 -2 -21 4 -27 15 -15 44 -1 40 19 -4 23 -36 29
-44 8z"/>
<path d="M9503 7424 c-62 -31 -111 -82 -132 -140 -25 -66 -26 -94 -5 -163 39
-131 159 -195 302 -159 89 22 172 137 172 237 0 80 -71 189 -143 222 -52 23
-149 25 -194 3z"/>
<path d="M9086 7409 c-72 -20 -156 -132 -156 -209 0 -53 44 -133 91 -166 109
-76 274 -15 285 105 2 23 4 44 5 48 14 88 -73 192 -162 196 -28 1 -35 4 -23
10 9 5 24 7 35 4 10 -3 19 -2 19 3 0 11 -63 17 -94 9z"/>
<path d="M8188 7353 c6 -2 18 -2 25 0 6 3 1 5 -13 5 -14 0 -19 -2 -12 -5z"/>
<path d="M11793 7298 c-12 -6 -29 -26 -38 -44 -14 -29 -14 -37 -1 -68 36 -87
150 -73 163 20 4 33 1 45 -18 67 -27 31 -73 42 -106 25z"/>
<path d="M14814 7300 c-56 -23 -69 -90 -28 -139 20 -25 34 -31 64 -31 74 0
116 89 68 144 -25 29 -72 40 -104 26z"/>
<path d="M11576 7266 c-30 -29 -33 -62 -10 -94 32 -46 124 -13 124 45 0 28
-29 61 -62 69 -21 4 -33 0 -52 -20z"/>
<path d="M15011 7264 c-24 -30 -26 -43 -10 -77 11 -24 47 -47 73 -47 7 0 25 9
40 21 33 26 36 79 6 109 -30 30 -83 27 -109 -6z"/>
<path d="M15252 7264 c-29 -20 -31 -79 -3 -94 29 -15 56 -12 74 8 23 25 21 58
-3 82 -24 24 -38 25 -68 4z"/>
<path d="M8336 7245 c8 -37 14 -45 14 -19 0 10 -5 26 -10 34 -8 11 -9 7 -4
-15z"/>
<path d="M11368 7259 c-28 -16 -23 -65 8 -86 28 -18 47 -12 70 23 29 43 -31
92 -78 63z"/>
<path d="M15467 7253 c-13 -12 -7 -60 8 -73 12 -10 21 -10 40 -2 25 11 31 34
19 66 -6 16 -54 22 -67 9z"/>
<path d="M11163 7224 c-3 -8 -1 -20 5 -26 16 -16 42 -2 42 22 0 24 -38 28 -47
4z"/>
<path d="M15696 7225 c-3 -9 1 -18 10 -22 19 -7 28 2 21 22 -8 19 -23 19 -31
0z"/>
<path d="M9901 7134 c0 -11 3 -14 6 -6 3 7 2 16 -1 19 -3 4 -6 -2 -5 -13z"/>
<path d="M8060 7096 c0 -2 8 -10 18 -17 15 -13 16 -12 3 4 -13 16 -21 21 -21
13z"/>
<path d="M14605 7093 c-98 -23 -78 -183 23 -183 55 1 102 47 102 99 0 46 -73
95 -125 84z"/>
<path d="M8276 7075 c-11 -8 -15 -15 -9 -15 6 0 16 7 23 15 16 19 11 19 -14 0z"/>
<path d="M10103 7064 c15 -17 24 -33 20 -37 -3 -4 -1 -7 5 -7 20 0 13 15 -20
46 l-33 29 28 -31z"/>
<path d="M11987 7070 c-49 -39 -42 -116 14 -145 35 -19 53 -19 89 0 35 18 55
71 41 108 -21 55 -96 75 -144 37z"/>
<path d="M11775 7055 c-52 -51 -11 -135 66 -135 31 0 69 44 69 80 0 41 -39 80
-80 80 -19 0 -40 -9 -55 -25z"/>
<path d="M14790 7053 c-16 -21 -20 -36 -16 -62 7 -44 23 -60 68 -68 30 -4 41
-1 62 20 54 54 22 137 -54 137 -30 0 -43 -6 -60 -27z"/>
<path d="M15020 7050 c-36 -36 -18 -104 30 -110 51 -7 80 16 80 64 0 60 -68
88 -110 46z"/>
<path d="M11570 7041 c-35 -67 27 -128 88 -85 26 18 30 65 6 88 -22 23 -81 21
-94 -3z"/>
<path d="M15250 7040 c-25 -25 -26 -52 -2 -73 26 -24 59 -21 77 7 19 28 9 58
-25 76 -25 13 -27 13 -50 -10z"/>
<path d="M8148 7043 c7 -3 16 -2 19 1 4 3 -2 6 -13 5 -11 0 -14 -3 -6 -6z"/>
<path d="M9976 7040 c5 -5 25 -12 44 -15 36 -5 29 -1 -25 16 -20 6 -26 6 -19
-1z"/>
<path d="M11382 7043 c-22 -9 -34 -41 -23 -62 15 -28 49 -33 72 -10 24 24 24
41 1 62 -19 17 -28 19 -50 10z"/>
<path d="M15475 7024 c-9 -9 -14 -21 -12 -27 6 -18 33 -31 51 -24 21 8 21 53
0 61 -21 8 -20 8 -39 -10z"/>
<path d="M8628 7023 c7 -3 16 -2 19 1 4 3 -2 6 -13 5 -11 0 -14 -3 -6 -6z"/>
<path d="M10075 7020 c-3 -5 -1 -10 4 -10 6 0 11 5 11 10 0 6 -2 10 -4 10 -3
0 -8 -4 -11 -10z"/>
<path d="M10028 6960 c-100 -18 -188 -114 -196 -213 -11 -138 70 -244 205
-269 52 -10 68 -9 105 5 98 38 164 122 174 225 6 54 3 68 -20 116 -25 51 -72
98 -121 123 -29 15 -104 21 -147 13z"/>
<path d="M9476 6889 c-53 -46 -77 -99 -77 -170 -1 -109 72 -190 186 -204 43
-6 58 -3 104 22 61 32 94 69 94 107 0 14 3 23 8 20 5 -3 9 0 9 5 0 6 -4 11 -8
11 -5 0 -9 19 -8 43 1 94 -79 177 -178 182 -28 2 -61 6 -72 10 -16 5 -31 -2
-58 -26z"/>
<path d="M8643 6873 c9 -2 23 -2 30 0 6 3 -1 5 -18 5 -16 0 -22 -2 -12 -5z"/>
<path d="M12201 6854 c-64 -54 -26 -159 57 -159 59 0 92 34 92 92 0 85 -84
122 -149 67z"/>
<path d="M11989 6841 c-17 -18 -29 -40 -29 -56 0 -32 50 -85 80 -85 78 0 119
91 65 145 -34 35 -78 33 -116 -4z"/>
<path d="M14576 6849 c-57 -45 -19 -149 54 -149 37 0 90 47 90 80 0 76 -84
116 -144 69z"/>
<path d="M11782 6837 c-31 -33 -29 -80 4 -106 31 -24 43 -26 78 -10 34 16 47
57 31 96 -21 49 -77 59 -113 20z"/>
<path d="M14802 6837 c-31 -33 -29 -80 4 -106 31 -24 43 -26 78 -10 34 16 47
57 31 96 -21 49 -77 59 -113 20z"/>
<path d="M8544 6828 l-19 -23 23 19 c12 11 22 21 22 23 0 8 -8 2 -26 -19z"/>
<path d="M15032 6834 c-13 -9 -22 -25 -22 -42 0 -33 8 -45 38 -61 19 -10 28
-10 48 3 36 24 41 62 13 92 -26 28 -46 30 -77 8z"/>
<path d="M11574 6815 c-18 -28 -11 -60 17 -76 21 -11 59 -3 71 15 12 17 9 61
-4 74 -21 21 -66 14 -84 -13z"/>
<path d="M15252 6818 c-7 -7 -12 -21 -12 -33 0 -47 62 -63 81 -21 22 47 -33
90 -69 54z"/>
<path d="M11371 6801 c-13 -24 8 -55 34 -50 28 6 42 34 26 53 -18 22 -48 20
-60 -3z"/>
<path d="M15474 6795 c-8 -20 4 -35 27 -35 14 0 19 7 19 25 0 18 -5 25 -20 25
-11 0 -23 -7 -26 -15z"/>
<path d="M8802 6720 c0 -19 2 -27 5 -17 2 9 2 25 0 35 -3 9 -5 1 -5 -18z"/>
<path d="M8511 6694 c0 -11 3 -14 6 -6 3 7 2 16 -1 19 -3 4 -6 -2 -5 -13z"/>
<path d="M10381 6654 c0 -11 3 -14 6 -6 3 7 2 16 -1 19 -3 4 -6 -2 -5 -13z"/>
<path d="M12450 6659 c-62 -13 -88 -77 -57 -139 30 -60 123 -64 157 -7 52 84
-5 166 -100 146z"/>
<path d="M8520 6656 c0 -2 8 -10 18 -17 15 -13 16 -12 3 4 -13 16 -21 21 -21
13z"/>
<path d="M12245 6652 c-37 -8 -65 -43 -65 -82 0 -64 66 -105 120 -74 39 24 56
73 38 111 -14 29 -61 52 -93 45z"/>
<path d="M14393 6652 c-31 -5 -63 -48 -63 -84 0 -35 48 -88 80 -88 51 0 89 38
90 91 0 54 -48 90 -107 81z"/>
<path d="M16258 6602 c-37 -31 -67 -62 -67 -68 -1 -17 44 -9 72 12 44 34 94
115 70 114 -5 -1 -38 -27 -75 -58z"/>
<path d="M12012 6635 c-55 -24 -56 -102 -1 -130 34 -18 61 -13 89 18 55 58
-12 143 -88 112z"/>
<path d="M14603 6635 c-51 -22 -61 -90 -17 -124 35 -28 69 -26 99 4 62 61 -1
154 -82 120z"/>
<path d="M14822 6624 c-33 -23 -44 -49 -32 -78 19 -52 85 -58 116 -11 22 33
11 71 -26 90 -35 18 -31 18 -58 -1z"/>
<path d="M9010 6605 c13 -14 26 -25 28 -25 3 0 -5 11 -18 25 -13 14 -26 25
-28 25 -3 0 5 -11 18 -25z"/>
<path d="M10390 6621 c0 -5 5 -13 10 -16 6 -3 10 -2 10 4 0 5 -4 13 -10 16 -5
3 -10 2 -10 -4z"/>
<path d="M11787 6612 c-37 -40 -9 -102 46 -102 34 0 57 24 57 60 0 16 -7 36
-16 44 -21 22 -67 20 -87 -2z"/>
<path d="M11587 6602 c-24 -26 -21 -49 7 -67 34 -23 66 -5 66 35 0 45 -44 64
-73 32z"/>
<path d="M15032 6608 c-21 -21 -14 -66 13 -84 23 -15 27 -15 50 0 17 11 25 26
25 44 0 35 -16 52 -50 52 -14 0 -31 -5 -38 -12z"/>
<path d="M15261 6596 c-21 -25 -10 -61 18 -61 31 0 50 28 35 53 -15 23 -38 26
-53 8z"/>
<path d="M10435 6565 c17 -14 37 -25 45 -25 11 1 9 4 -5 12 -11 7 -26 18 -33
25 -7 7 -19 13 -25 13 -7 -1 2 -12 18 -25z"/>
<path d="M10624 6574 c5 -18 1 -23 -21 -29 -15 -5 -31 -8 -35 -7 -5 1 -8 -2
-8 -8 0 -12 6 -12 52 0 47 14 53 23 26 46 -20 19 -21 19 -14 -2z"/>
<path d="M11390 6571 c0 -17 18 -21 24 -6 3 9 0 15 -9 15 -8 0 -15 -4 -15 -9z"/>
<path d="M9118 6553 c12 -2 30 -2 40 0 9 3 -1 5 -23 4 -22 0 -30 -2 -17 -4z"/>
<path d="M10508 6533 c6 -2 18 -2 25 0 6 3 1 5 -13 5 -14 0 -19 -2 -12 -5z"/>
<path d="M10444 6455 c-100 -51 -151 -165 -125 -280 25 -110 144 -193 254
-179 87 12 171 74 203 150 20 48 17 151 -5 199 -20 44 -87 110 -127 125 -50
19 -146 12 -200 -15z"/>
<path d="M10005 6444 c-134 -73 -168 -236 -71 -342 64 -71 181 -85 258 -30 27
19 83 88 60 74 -15 -9 -15 -6 3 37 26 63 13 136 -35 191 -16 18 -27 36 -25 40
3 3 2 4 -1 1 -4 -2 -14 5 -24 17 -23 29 -121 36 -165 12z"/>
<path d="M12663 6438 c-41 -11 -63 -42 -63 -89 0 -46 45 -89 92 -89 70 0 113
95 68 152 -23 30 -52 38 -97 26z"/>
<path d="M13943 6435 c-41 -17 -58 -52 -49 -99 13 -71 89 -97 144 -51 38 32
48 74 28 114 -14 27 -26 34 -76 46 -8 2 -30 -2 -47 -10z"/>
<path d="M17440 6428 c-28 -15 -57 -43 -77 -72 -29 -42 -33 -57 -33 -111 0
-120 75 -205 189 -213 32 -2 75 1 94 7 48 16 113 89 128 143 23 85 -15 184
-93 240 -49 35 -148 37 -208 6z"/>
<path d="M17909 6427 c-56 -30 -100 -98 -107 -167 -16 -168 174 -288 309 -197
78 52 113 145 89 232 -15 54 -72 123 -117 141 -50 22 -123 18 -174 -9z"/>
<path d="M12416 6414 c-53 -54 -16 -144 59 -144 25 0 40 8 59 31 14 17 26 39
26 49 0 78 -90 118 -144 64z"/>
<path d="M14165 6428 c-52 -28 -62 -92 -20 -133 51 -52 135 -15 135 60 0 64
-61 103 -115 73z"/>
<path d="M12216 6409 c-19 -15 -26 -30 -26 -54 0 -36 37 -75 71 -75 30 0 72
43 72 75 0 32 -42 75 -72 75 -10 0 -30 -9 -45 -21z"/>
<path d="M14365 6405 c-30 -30 -32 -64 -4 -99 42 -54 129 -19 129 52 0 67 -77
96 -125 47z"/>
<path d="M18373 6405 c-62 -38 -88 -86 -88 -167 0 -58 4 -72 30 -110 38 -54
85 -78 150 -78 108 1 184 69 193 175 3 42 -1 64 -18 101 -48 98 -173 135 -267
79z"/>
<path d="M12002 6397 c-27 -29 -28 -61 -2 -87 28 -28 64 -25 89 6 27 34 26 50
-4 79 -30 31 -55 32 -83 2z"/>
<path d="M14590 6400 c-41 -41 -14 -110 42 -110 29 0 68 38 68 66 0 27 -40 64
-68 64 -12 0 -31 -9 -42 -20z"/>
<path d="M14811 6384 c-21 -27 -19 -51 7 -71 24 -20 59 -15 76 9 21 30 20 44
-4 68 -27 27 -55 25 -79 -6z"/>
<path d="M11792 6388 c-18 -18 -15 -53 6 -71 24 -22 45 -21 65 1 34 37 15 82
-33 82 -14 0 -31 -5 -38 -12z"/>
<path d="M15046 6387 c-38 -27 2 -95 42 -71 24 16 28 55 6 71 -10 7 -21 13
-24 13 -3 0 -14 -6 -24 -13z"/>
<path d="M11595 6374 c-11 -12 -12 -20 -4 -35 14 -28 43 -20 47 12 4 32 -21
45 -43 23z"/>
<path d="M9484 6358 l-19 -23 23 19 c21 18 27 26 19 26 -2 0 -12 -10 -23 -22z"/>
<path d="M9715 6360 c10 -11 20 -20 23 -20 3 0 -3 9 -13 20 -10 11 -20 20 -23
20 -3 0 3 -9 13 -20z"/>
<path d="M10852 6335 c-45 -92 -20 -186 66 -252 51 -38 112 -57 165 -50 45 6
109 46 134 83 16 25 16 27 0 38 -64 42 -190 129 -250 173 -40 29 -77 53 -83
53 -5 0 -20 -20 -32 -45z"/>
<path d="M15264 6365 c-7 -18 3 -35 21 -35 18 0 26 25 12 39 -15 15 -27 14
-33 -4z"/>
<path d="M9209 6354 c12 -9 31 -30 42 -48 10 -17 19 -26 19 -19 0 16 -59 83
-73 83 -6 0 -1 -7 12 -16z"/>
<path d="M9455 6309 c-4 -6 -5 -12 -2 -15 2 -3 7 2 10 11 7 17 1 20 -8 4z"/>
<path d="M9261 6254 c0 -11 3 -14 6 -6 3 7 2 16 -1 19 -3 4 -6 -2 -5 -13z"/>
<path d="M9441 6254 c0 -11 3 -14 6 -6 3 7 2 16 -1 19 -3 4 -6 -2 -5 -13z"/>
<path d="M13059 6201 c-60 -61 -24 -151 61 -151 52 0 90 36 90 87 0 46 -46 93
-90 93 -22 0 -41 -9 -61 -29z"/>
<path d="M13269 6201 c-45 -46 -32 -123 26 -149 39 -18 60 -15 93 13 39 32 48
74 28 114 -31 60 -99 70 -147 22z"/>
<path d="M13510 6218 c-50 -27 -63 -88 -29 -132 31 -40 64 -49 103 -31 57 27
73 95 34 139 -28 31 -74 41 -108 24z"/>
<path d="M13728 6215 c-56 -31 -64 -91 -19 -136 38 -37 82 -39 116 -4 69 68
-13 186 -97 140z"/>
<path d="M12655 6208 c-31 -16 -45 -39 -45 -70 0 -39 40 -78 80 -78 39 0 80
39 80 75 0 31 -49 85 -77 85 -10 0 -27 -6 -38 -12z"/>
<path d="M12845 6195 c-35 -34 -33 -78 5 -117 26 -25 36 -29 63 -24 36 7 77
47 77 77 0 28 -26 75 -45 83 -35 13 -76 6 -100 -19z"/>
<path d="M13950 6207 c-75 -38 -51 -147 33 -147 80 0 107 109 36 145 -34 18
-37 18 -69 2z"/>
<path d="M12421 6184 c-25 -31 -27 -61 -6 -91 28 -40 89 -37 122 6 33 42 -6
111 -62 111 -24 0 -39 -7 -54 -26z"/>
<path d="M14155 6185 c-48 -47 -19 -115 49 -115 62 0 89 75 43 118 -30 29 -62
28 -92 -3z"/>
<path d="M12220 6180 c-39 -39 -14 -100 43 -100 28 0 57 32 57 62 0 24 -35 58
-60 58 -11 0 -29 -9 -40 -20z"/>
<path d="M14384 6192 c-13 -9 -34 -46 -34 -62 0 -19 48 -60 70 -60 50 0 80 79
42 113 -19 18 -59 22 -78 9z"/>
<path d="M12004 6165 c-23 -36 -6 -75 33 -75 51 0 69 28 46 73 -18 36 -56 37
-79 2z"/>
<path d="M14597 6172 c-23 -25 -21 -55 3 -77 25 -23 67 -13 82 20 24 53 -46
100 -85 57z"/>
<path d="M14822 6168 c-34 -34 6 -90 48 -68 35 19 20 80 -20 80 -9 0 -21 -5
-28 -12z"/>
<path d="M11804 6155 c-15 -38 29 -72 52 -40 9 13 10 23 3 36 -12 23 -47 25
-55 4z"/>
<path d="M9035 6140 c21 -24 26 -25 19 -6 -3 8 -13 17 -22 21 -13 5 -13 2 3
-15z"/>
<path d="M15051 6146 c-9 -10 -8 -16 4 -26 19 -16 41 1 32 24 -8 20 -21 20
-36 2z"/>
<path d="M9470 6146 c0 -2 8 -10 18 -17 15 -13 16 -12 3 4 -13 16 -21 21 -21
13z"/>
<path d="M9118 6103 c12 -2 30 -2 40 0 9 3 -1 5 -23 4 -22 0 -30 -2 -17 -4z"/>
<path d="M10929 5968 c-87 -63 -107 -85 -124 -134 -20 -60 -14 -108 21 -173
50 -89 107 -129 200 -138 103 -11 208 66 240 174 28 95 -13 210 -94 268 -38
26 -54 30 -120 33 -73 3 -79 2 -123 -30z"/>
<path d="M13076 5979 c-20 -16 -26 -29 -26 -58 0 -46 24 -71 68 -71 69 0 99
87 46 129 -15 12 -34 21 -44 21 -10 0 -29 -9 -44 -21z"/>
<path d="M13286 5979 c-20 -16 -26 -29 -26 -59 0 -30 6 -43 26 -59 35 -28 56
-26 93 5 39 33 41 74 6 109 -30 30 -64 32 -99 4z"/>
<path d="M13530 5993 c-51 -19 -66 -81 -32 -124 24 -29 75 -30 103 -2 53 53
-2 151 -71 126z"/>
<path d="M11414 5961 c-83 -61 -117 -121 -117 -211 0 -109 73 -216 165 -240
60 -15 66 -18 42 -19 -12 -1 -47 -14 -78 -30 -31 -17 -56 -27 -56 -23 -1 4
-12 -13 -25 -38 -19 -35 -24 -61 -24 -115 -1 -66 1 -73 37 -119 50 -67 99 -91
183 -91 57 0 72 4 109 30 24 16 52 44 64 62 12 18 26 33 32 33 7 0 14 18 16
40 2 22 0 40 -4 40 -5 0 -8 13 -8 29 0 51 -57 122 -126 157 l-62 31 37 12
c102 30 171 125 171 235 0 34 -6 72 -13 86 -14 28 -247 160 -283 160 -12 0
-39 -13 -60 -29z"/>
<path d="M12664 5978 c-30 -14 -46 -52 -35 -82 24 -61 121 -41 121 25 0 30 -9
43 -37 58 -25 13 -22 13 -49 -1z"/>
<path d="M12859 5972 c-45 -37 -16 -122 41 -122 31 0 70 39 70 71 0 59 -64 88
-111 51z"/>
<path d="M13717 5972 c-42 -46 -5 -126 55 -120 61 6 86 79 42 122 -21 22 -77
20 -97 -2z"/>
<path d="M13953 5980 c-47 -19 -40 -107 10 -124 22 -8 32 -6 55 11 39 29 42
74 6 102 -29 23 -38 24 -71 11z"/>
<path d="M12442 5964 c-31 -21 -30 -69 2 -90 55 -35 114 39 70 87 -21 23 -42
24 -72 3z"/>
<path d="M14160 5960 c-11 -11 -20 -29 -20 -40 0 -11 9 -29 20 -40 11 -11 29
-20 40 -20 11 0 29 9 40 20 11 11 20 29 20 40 0 11 -9 29 -20 40 -11 11 -29
20 -40 20 -11 0 -29 -9 -40 -20z"/>
<path d="M10520 5963 c-108 -38 -151 -92 -151 -193 -1 -51 4 -70 28 -108 38
-62 89 -87 175 -87 78 0 103 15 158 90 30 42 35 57 35 105 0 108 -87 201 -186
199 -24 0 -51 -3 -59 -6z"/>
<path d="M14382 5958 c-15 -15 -16 -60 0 -76 18 -18 53 -14 73 8 27 30 10 74
-30 78 -17 2 -36 -3 -43 -10z"/>
<path d="M17023 5961 c-82 -21 -143 -103 -143 -191 0 -119 93 -207 211 -198
73 5 130 42 160 105 43 90 7 216 -76 264 -37 21 -109 30 -152 20z"/>
<path d="M12221 5938 c-12 -33 4 -58 39 -58 32 0 46 25 35 60 -9 29 -63 28
-74 -2z"/>
<path d="M14602 5948 c-18 -18 -14 -45 10 -62 37 -26 79 14 58 55 -12 21 -50
25 -68 7z"/>
<path d="M17465 5946 c-43 -18 -93 -79 -101 -121 -11 -60 0 -139 25 -174 44
-61 156 -92 231 -63 59 23 110 108 110 184 0 48 -27 114 -56 140 -51 45 -148
61 -209 34z"/>
<path d="M12014 5935 c-10 -25 4 -47 28 -43 17 2 24 11 26 31 3 23 0 27 -23
27 -14 0 -28 -7 -31 -15z"/>
<path d="M14830 5935 c-11 -13 -11 -19 3 -33 20 -19 41 -5 35 24 -4 24 -22 28
-38 9z"/>
<path d="M17946 5920 c-37 -12 -64 -37 -87 -82 -58 -113 24 -242 152 -242 157
0 217 210 88 306 -28 21 -112 31 -153 18z"/>
<path d="M9618 5893 c7 -3 16 -2 19 1 4 3 -2 6 -13 5 -11 0 -14 -3 -6 -6z"/>
<path d="M9545 5880 c-3 -6 1 -7 9 -4 18 7 21 14 7 14 -6 0 -13 -4 -16 -10z"/>
<path d="M9650 5886 c0 -2 7 -7 16 -10 8 -3 12 -2 9 4 -6 10 -25 14 -25 6z"/>
<path d="M9960 5860 c-12 -17 -19 -36 -17 -43 4 -9 6 -8 6 1 1 8 10 27 22 43
11 16 18 29 15 29 -2 0 -14 -14 -26 -30z"/>
<path d="M10201 5856 c12 -20 23 -36 25 -36 7 0 -25 58 -36 65 -5 3 -1 -10 11
-29z"/>
<path d="M9515 5860 c-3 -5 -1 -10 4 -10 6 0 11 5 11 10 0 6 -2 10 -4 10 -3 0
-8 -4 -11 -10z"/>
<path d="M9575 5816 c-17 -17 -25 -36 -25 -60 0 -29 5 -36 30 -44 23 -9 33 -8
45 4 21 21 19 71 -5 101 l-19 25 -26 -26z"/>
<path d="M11821 5791 c-9 -20 -9 -40 -1 -76 34 -152 178 -234 306 -176 49 23
118 81 107 92 -4 4 -70 35 -146 68 -75 34 -164 74 -196 91 l-59 29 -11 -28z"/>
<path d="M9932 5770 c0 -19 2 -27 5 -17 2 9 2 25 0 35 -3 9 -5 1 -5 -18z"/>
<path d="M9482 5770 c0 -14 2 -19 5 -12 2 6 2 18 0 25 -3 6 -5 1 -5 -13z"/>
<path d="M13294 5745 c-29 -29 -26 -58 8 -88 24 -20 55 -15 81 15 23 27 22 44
-8 73 -31 32 -50 31 -81 0z"/>
<path d="M12883 5749 c-26 -10 -38 -42 -24 -67 25 -48 95 -24 89 30 -3 35 -30
50 -65 37z"/>
<path d="M13073 5734 c-15 -24 -15 -29 -2 -53 16 -29 69 -41 86 -19 23 29 24
57 4 77 -29 29 -67 27 -88 -5z"/>
<path d="M13516 5747 c-39 -28 -13 -97 36 -97 23 0 58 35 58 58 0 42 -58 66
-94 39z"/>
<path d="M13729 5739 c-22 -22 -19 -55 9 -76 22 -18 46 -16 65 5 22 24 21 55
-1 75 -25 23 -48 21 -73 -4z"/>
<path d="M13963 5749 c-40 -15 -40 -73 1 -88 43 -16 80 16 69 60 -6 23 -43 38
-70 28z"/>
<path d="M12657 5729 c-20 -27 -10 -58 19 -65 30 -8 54 11 54 40 0 46 -48 62
-73 25z"/>
<path d="M14172 5738 c-25 -25 -4 -78 32 -78 10 0 36 32 36 45 0 17 -27 45
-44 45 -6 0 -17 -5 -24 -12z"/>
<path d="M12449 5724 c-16 -20 -1 -48 29 -52 25 -4 39 32 22 53 -16 19 -34 19
-51 -1z"/>
<path d="M14390 5725 c-18 -21 -3 -55 25 -55 15 0 26 7 30 20 7 23 -10 50 -30
50 -7 0 -18 -7 -25 -15z"/>
<path d="M9490 5721 c0 -15 55 -71 69 -71 6 0 11 5 11 11 0 5 -4 8 -8 5 -11
-6 -23 3 -50 38 -12 16 -22 23 -22 17z"/>
<path d="M12244 5709 c-3 -6 -1 -16 5 -22 9 -9 14 -8 21 3 9 15 4 30 -10 30
-5 0 -12 -5 -16 -11z"/>
<path d="M14622 5704 c4 -21 22 -23 26 -1 2 10 -3 17 -13 17 -10 0 -15 -6 -13
-16z"/>
<path d="M9975 5660 c10 -11 20 -20 23 -20 3 0 -3 9 -13 20 -10 11 -20 20 -23
20 -3 0 3 -9 13 -20z"/>
<path d="M10179 5653 l-24 -28 28 24 c15 14 27 26 27 28 0 8 -8 1 -31 -24z"/>
<path d="M9593 5643 c9 -2 23 -2 30 0 6 3 -1 5 -18 5 -16 0 -22 -2 -12 -5z"/>
<path d="M10068 5613 c7 -3 16 -2 19 1 4 3 -2 6 -13 5 -11 0 -14 -3 -6 -6z"/>
<path d="M12404 5551 c20 -32 145 -61 176 -41 12 8 11 10 -6 10 -12 0 -37 6
-55 14 -49 20 -123 31 -115 17z"/>
<path d="M12881 5503 c-7 -13 -5 -23 6 -35 14 -16 14 -18 1 -18 -18 0 -80 -65
-104 -111 -27 -52 -24 -133 9 -196 32 -63 64 -89 134 -109 142 -41 275 63 274
215 0 109 -50 165 -163 187 -40 8 -86 14 -102 14 -23 0 -27 3 -18 12 17 17 15
45 -4 52 -22 8 -22 8 -33 -11z"/>
<path d="M13090 5501 c-15 -29 -2 -51 30 -51 16 0 30 7 34 16 9 22 -11 54 -34
54 -11 0 -24 -9 -30 -19z"/>
<path d="M13300 5500 c-23 -44 29 -80 64 -44 19 18 19 20 6 45 -14 25 -56 25
-70 -1z"/>
<path d="M13521 5506 c-28 -33 22 -83 55 -55 8 7 14 24 12 38 -2 20 -9 27 -29
29 -14 2 -31 -4 -38 -12z"/>
<path d="M13740 5505 c-18 -22 -1 -50 31 -50 20 0 24 5 24 30 0 23 -5 31 -21
33 -11 2 -27 -4 -34 -13z"/>
<path d="M13967 5514 c-12 -12 -8 -44 6 -44 28 -1 -21 -18 -68 -24 -137 -18
-171 -40 -215 -139 -18 -41 -19 -48 -4 -103 28 -109 107 -174 211 -174 93 0
152 40 199 132 26 52 30 97 13 149 -15 44 -81 148 -94 148 -6 1 -11 13 -10 28
0 27 -22 42 -38 27z"/>
<path d="M11945 5488 c-59 -32 -89 -58 -123 -108 -46 -70 -49 -129 -10 -205
63 -123 148 -160 301 -132 28 5 85 67 112 121 59 118 11 258 -109 315 -47 23
-137 28 -171 9z"/>
<path d="M12414 5471 c-49 -22 -107 -97 -124 -160 -15 -59 -6 -114 30 -177 37
-65 83 -94 158 -101 112 -10 180 29 228 132 32 67 31 127 -2 193 -56 114 -181
162 -290 113z"/>
<path d="M16095 5476 c-111 -41 -157 -186 -91 -287 38 -57 94 -82 171 -77 76
5 122 35 155 104 72 148 -80 316 -235 260z"/>
<path d="M16550 5464 c-74 -32 -111 -88 -112 -168 -1 -86 50 -154 133 -176
150 -41 276 112 210 255 -22 48 -44 69 -94 90 -46 19 -92 19 -137 -1z"/>
<path d="M17001 5448 c-55 -28 -81 -62 -92 -119 -24 -131 94 -238 221 -200 72
21 130 118 116 194 -22 117 -143 179 -245 125z"/>
<path d="M10970 5417 c-48 -32 -72 -78 -72 -137 0 -86 56 -140 146 -140 89 0
146 59 146 152 0 115 -128 188 -220 125z"/>
<path d="M17470 5418 c-65 -45 -86 -121 -52 -187 26 -53 62 -74 125 -75 92 -1
142 49 141 140 -1 62 -27 103 -78 128 -47 22 -97 20 -136 -6z"/>
<path d="M13293 5388 c-51 -56 -67 -143 -42 -232 18 -67 85 -114 174 -123 92
-10 168 42 209 141 28 67 17 139 -31 204 l-24 32 -133 0 c-125 0 -134 -1 -153
-22z"/>
<path d="M10507 5389 c-15 -9 -16 -12 -2 -25 8 -8 19 -12 25 -9 5 3 10 -2 10
-11 0 -10 -3 -14 -7 -11 -3 4 -15 0 -25 -10 -11 -9 -18 -11 -18 -5 0 7 5 12
10 12 6 0 10 5 10 11 0 5 -4 7 -10 4 -5 -3 -10 -1 -10 4 0 6 -5 11 -11 11 -6
0 -8 -7 -5 -17 4 -9 1 -20 -6 -24 -9 -6 -9 -11 1 -23 7 -8 11 -25 8 -38 -4
-20 -4 -20 -6 5 0 15 -5 27 -10 27 -14 0 5 -59 25 -82 21 -22 69 -36 104 -30
23 5 23 6 5 13 -15 5 -16 8 -4 8 27 2 61 47 61 83 -1 55 -17 98 -38 98 -8 0
-14 3 -14 8 0 4 -11 8 -25 8 -14 1 -25 -2 -25 -7 0 -5 -5 -9 -11 -9 -5 0 -7 5
-4 10 8 13 -5 12 -28 -1z m53 -195 c0 -2 -7 -4 -15 -4 -8 0 -15 4 -15 10 0 5
7 7 15 4 8 -4 15 -8 15 -10z"/>
<path d="M10058 5383 c7 -3 16 -2 19 1 4 3 -2 6 -13 5 -11 0 -14 -3 -6 -6z"/>
<path d="M10015 5360 c-10 -11 -16 -22 -14 -24 2 -2 12 7 22 20 22 29 17 32
-8 4z"/>
<path d="M9992 5300 c0 -14 2 -19 5 -12 2 6 2 18 0 25 -3 6 -5 1 -5 -13z"/>
<path d="M10142 5290 c0 -14 2 -19 5 -12 2 6 2 18 0 25 -3 6 -5 1 -5 -13z"/>
<path d="M10157 5237 l-17 -32 20 24 c17 20 26 41 18 41 -2 0 -11 -15 -21 -33z"/>
<path d="M10000 5253 c0 -5 10 -19 23 -31 17 -16 35 -22 68 -21 l44 2 -49 6
c-33 5 -55 15 -67 30 -11 13 -19 19 -19 14z"/>
<path d="M15175 4989 c-120 -35 -154 -209 -57 -291 66 -55 142 -59 214 -12 49
31 70 73 70 140 1 120 -108 198 -227 163z"/>
<path d="M15614 4971 c-102 -62 -119 -189 -35 -272 69 -69 188 -60 248 18 39
51 44 144 11 193 -53 77 -152 105 -224 61z"/>
<path d="M16107 4975 c-77 -27 -114 -88 -104 -171 17 -151 220 -198 294 -68
75 131 -51 289 -190 239z"/>
<path d="M12925 4966 c-45 -20 -94 -75 -106 -120 -49 -182 161 -313 284 -176
91 100 60 242 -65 295 -45 18 -73 19 -113 1z"/>
<path d="M12455 4955 c-114 -40 -148 -206 -59 -285 65 -57 156 -52 216 11 59
62 64 148 13 215 -45 59 -108 80 -170 59z"/>
<path d="M13375 4954 c-45 -23 -66 -45 -86 -89 -50 -109 13 -234 125 -250 139
-21 236 143 161 271 -42 71 -134 103 -200 68z"/>
<path d="M13840 4959 c-32 -13 -78 -56 -96 -91 -20 -39 -17 -115 7 -164 49
-102 176 -119 260 -35 123 123 -13 353 -171 290z"/>
<path d="M16546 4948 c-133 -78 -80 -272 73 -272 87 0 145 58 145 146 0 111
-123 182 -218 126z"/>
<path d="M14294 4936 c-38 -17 -71 -57 -85 -106 -24 -80 15 -155 97 -186 109
-41 208 50 191 176 -13 99 -112 156 -203 116z"/>
<path d="M17030 4922 c-50 -24 -76 -81 -61 -131 22 -75 92 -108 164 -77 27 11
42 26 53 53 28 65 5 126 -58 159 -35 18 -56 18 -98 -4z"/>
<path d="M11959 4915 c-78 -42 -77 -190 1 -230 85 -44 180 14 180 110 0 97
-101 164 -181 120z"/>
<path d="M14743 4887 c-31 -29 -37 -41 -41 -89 -4 -53 -2 -58 31 -94 34 -37
39 -39 95 -39 50 0 65 4 86 24 58 54 55 155 -5 205 -24 20 -41 26 -80 26 -42
0 -55 -5 -86 -33z"/>
<path d="M11483 4885 c-30 -21 -46 -75 -33 -110 6 -15 8 -30 5 -33 -3 -3 2
-14 12 -24 25 -28 104 -25 139 5 49 42 29 144 -32 167 -36 14 -66 12 -91 -5z"/>
<path d="M11025 4868 c-27 -15 -35 -28 -35 -61 0 -33 40 -77 70 -77 31 0 60
35 60 73 0 38 -7 50 -37 66 -26 14 -33 13 -58 -1z"/>
<path d="M14705 4477 c-135 -76 -69 -282 84 -262 54 6 86 26 111 68 41 67 11
160 -62 196 -56 27 -83 26 -133 -2z"/>
<path d="M15170 4482 c-21 -11 -44 -36 -58 -63 -87 -165 142 -294 246 -139 75
111 -69 266 -188 202z"/>
<path d="M15624 4471 c-40 -25 -69 -95 -61 -148 4 -26 18 -49 43 -72 34 -31
39 -33 96 -29 50 4 64 9 90 35 59 60 46 169 -27 217 -33 22 -103 20 -141 -3z"/>
<path d="M16110 4467 c-13 -7 -35 -28 -48 -47 -19 -28 -23 -44 -19 -83 2 -27
12 -56 23 -68 72 -81 199 -42 211 64 12 102 -82 177 -167 134z"/>
<path d="M16583 4440 c-26 -10 -63 -66 -63 -93 0 -30 27 -72 55 -85 55 -25
105 -11 130 38 24 46 19 78 -19 116 -35 35 -61 41 -103 24z"/>
<path d="M14725 3991 c-34 -14 -56 -47 -62 -92 -16 -116 119 -183 199 -97 22
24 28 39 28 77 0 26 -7 56 -16 69 -30 44 -98 63 -149 43z"/>
<path d="M15183 3985 c-60 -26 -83 -117 -41 -170 82 -104 237 -25 196 101 -14
41 -66 84 -102 84 -12 -1 -35 -7 -53 -15z"/>
<path d="M14247 3970 c-50 -40 -55 -119 -9 -165 51 -51 130 -44 169 14 27 40
29 71 8 111 -30 58 -119 79 -168 40z"/>
<path d="M15643 3970 c-19 -11 -35 -31 -39 -47 -3 -15 -8 -34 -10 -41 -7 -23
25 -78 52 -91 31 -14 79 -14 106 0 42 23 56 108 25 149 -19 25 -60 50 -82 50
-11 0 -35 -9 -52 -20z"/>
<path d="M16103 3934 c-20 -20 -24 -31 -19 -57 12 -62 84 -89 126 -47 31 31
30 72 -3 108 -28 30 -71 29 -104 -4z"/>
<path d="M13822 3918 c-7 -7 -12 -24 -12 -40 0 -50 66 -62 91 -17 23 43 -44
92 -79 57z"/>
<path d="M14271 3496 c-84 -47 -52 -176 44 -176 44 0 95 45 95 84 0 39 -21 76
-51 92 -34 17 -57 17 -88 0z"/>
<path d="M14734 3496 c-65 -29 -67 -129 -3 -161 43 -23 77 -18 110 14 48 48
31 128 -32 150 -39 13 -37 13 -75 -3z"/>
<path d="M15176 3469 c-30 -35 -32 -58 -11 -98 16 -32 33 -41 73 -41 77 1 106
101 45 150 -38 30 -76 26 -107 -11z"/>
<path d="M13802 3470 c-33 -31 -30 -92 4 -119 54 -43 124 -10 124 58 0 70 -78
107 -128 61z"/>
<path d="M15662 3463 c-31 -28 -35 -56 -11 -86 25 -32 61 -35 89 -7 27 27 25
56 -5 85 -29 30 -46 31 -73 8z"/>
<path d="M13356 3444 c-23 -23 -20 -51 8 -69 45 -30 91 16 61 61 -18 28 -47
31 -69 8z"/>
<path d="M13826 2987 c-28 -21 -18 -69 18 -82 24 -8 31 -6 47 13 19 24 16 49
-9 70 -20 15 -34 15 -56 -1z"/>
<path d="M14270 2981 c-5 -11 -10 -29 -10 -40 0 -22 35 -51 61 -51 38 0 65 70
37 98 -20 20 -76 15 -88 -7z"/>
<path d="M14740 2979 c-28 -52 28 -102 70 -64 25 23 25 47 2 68 -25 23 -59 21
-72 -4z"/>
<path d="M13362 2978 c-25 -25 -6 -68 30 -68 23 0 38 30 27 58 -9 24 -38 29
-57 10z"/>
</g>
</svg>
